<!-- login.svg -->
<svg xmlns="http://www.w3.org/2000/svg" id="login-svg">
        <path d="M8.5,31.8C8,37.7,10,42.5,14.4,46.2c4.1,3.4,8.9,4.5,14.2,3.4c4.2-0.9,7.5-3.1,10-6.8c2.4-3.3,3.3-7.2,2.9-11.3
                    c-0.4-3.5-1.9-6.8-4.3-9.4c-0.4-0.4-0.5-0.7-0.5-1.2c0-1.2,0-2.4,0-3.6V16c0-0.5,0-0.8,0-1.3c0-0.9,0-1.9,0-2.9
                    C36.5,6.8,34.1,3.1,29.7,1c-1.5-0.6-3.1-1-4.7-1c-2.1,0-4.2,0.6-6.1,1.8c-3.3,2-5.4,5.5-5.6,9.3c-0.1,2.5-0.1,5-0.1,7.4
                    c0,0.8,0,1.7,0,2.4c0,0.6-0.2,1.1-0.6,1.5C10.2,25,8.8,28.2,8.5,31.8z M15.6,18.7c0-0.8,0-1.7,0-2.4c0-1.8,0-3.7,0.1-5.5
                    C16,6.4,20,2.6,24.6,2.4c4.5-0.2,8.6,3,9.5,7.2c0.2,0.7,0.3,1.4,0.3,2.1c0,1.8,0,3.6,0,5.4v1.8c0,0.1,0,0.2,0,0.3l-0.1,0.5
                    L34,19.4c-6-3.5-11.9-3.4-17.9,0l-0.4,0.2L15.6,18.7C15.7,18.7,15.6,18.7,15.6,18.7z M14.9,23.3c2.7-2.7,6.3-4.2,10.1-4.2l0,0
                    c3.8,0,7.4,1.5,10.1,4.2s4.2,6.3,4.2,10.1c0,7.9-6.4,14.2-14.2,14.2l0,0c-7.9,0-14.2-6.4-14.2-14.2C10.7,29.6,12.2,26,14.9,23.3z
                    "></path>
        <path d="M27.8,33.3c1.1-1,1.4-2.9,0.7-4.3c-0.6-1.5-2.1-2.4-3.5-2.4c-0.1,0-0.1,0-0.2,0c-1.7,0.1-3.1,1.2-3.7,2.7
                    c-0.6,1.9-0.1,3.5,1.3,4.3c1.3,0.7,1.3,1.7,1.2,2.8c0,0.1,0,0.2,0,0.2l0,0v0.2c0,0.2,0,0.5,0,0.6c0,0.6,0,1.1,0,1.6
                    c0,0.2,0.2,0.6,0.4,0.7c0.4,0.3,0.7,0.4,1.2,0.2c0.5-0.2,0.7-0.6,0.7-1v-1c0-0.9,0-1.9,0-2.8c0-0.6,0.2-0.9,0.7-1.1
                    C27.2,34,27.5,33.7,27.8,33.3z M25,32.3L25,32.3c-0.5,0-0.8-0.2-1.2-0.5c-0.4-0.3-0.5-0.7-0.5-1.2c0-0.9,0.7-1.6,1.6-1.6l0,0
                    c0.9,0,1.6,0.6,1.6,1.6C26.6,31.5,25.9,32.2,25,32.3z"></path>
</svg>