<!-- magnifier.svg -->
<svg xmlns="http://www.w3.org/2000/svg" id="magnifier-svg">
        <path d="M35.4,33.1c2.1,2.2,4.2,4.3,6.3,6.4c2.3,2.4,4.7,4.7,7,7.1c1,1,1,1.9,0.2,2.8c-0.8,0.8-1.8,0.8-2.8-0.2
        c-4-4-7.9-8.1-11.9-12.1c-0.4-0.4-0.8-0.9-1.2-1.4c-5.5,4.2-11.6,5.8-18.2,3.9c-4.7-1.3-8.5-4.2-11.1-8.4c-5.5-8.6-3.8-20,3.7-26.4
        C15.3-1.9,26.5-1.6,34,5.6C41.1,12.4,42.3,24.8,35.4,33.1z M20.3,36.8c9.1-0.1,16.4-7.5,16.3-16.7C36.5,11,29.4,3.7,20.5,3.6
        C11,3.5,3.9,10.9,4,20.6C4.1,29.5,11.5,36.9,20.3,36.8z"></path>
</svg>