<!-- register.svg -->
<svg class="hidden" xmlns="http://www.w3.org/2000/svg" id="register-svg">
        <path
            d="M7.2 7.2c2 0 3.6-1.6 3.6-3.6 0-1-.4-1.9-1.1-2.5C9.1.4 8.2 0 7.2 0c-2 0-3.6 1.6-3.6 3.6 0 1 .4 1.9 1.1 2.6.7.6 1.6 1 2.5 1zm-2-5.6c.5-.5 1.2-.8 2-.8s1.5.3 2 .9c.5.5.8 1.3.8 2 0 1.6-1.3 2.8-2.8 2.8-1.6 0-2.8-1.3-2.8-2.9 0-.8.3-1.5.8-2zM14 11.1h-2.5V8.6c0-.2-.2-.4-.4-.4H11c-.2 0-.4.2-.4.4v2.5H8.1c-.2 0-.4.2-.4.4v.1c0 .2.2.4.4.4h2.5v2.5c0 .2.2.4.4.4h.1c.2 0 .4-.2.4-.4V12H14c.2 0 .4-.2.4-.4v-.1c0-.2-.2-.4-.4-.4z">
        </path>
        <path
            d="M7.3 14.2H1.4c.1-3 2.5-5.5 5.6-5.7h.4c.2 0 .3-.2.3-.4s-.2-.4-.4-.4c-.5.1-1 .1-1.4.3-2 .4-3.7 1.8-4.6 3.6-.4.9-.7 1.9-.7 2.9 0 .3.1.4.3.4h6.4c.2 0 .4-.2.4-.4-.1-.1-.2-.3-.4-.3z">
        </path>
</svg>