<svg xmlns="http://www.w3.org/2000/svg" id="connectors-svg">
    <path
        d="M35.3,9.1c-0.4-0.2-0.9-0.2-1.3-0.3V7.3c0-1.4,0-2.7,0-4.1c0-2-1.2-3.2-3.2-3.2H19.2c-2,0-3.2,1.2-3.2,3.2v4v1.6
	c-3.3,0.3-5.8,3.1-5.8,6.5c0,1.9,0,3.9,0,5.9v0.5c0,3.4,0,6.7,0,10.1c0,4.1,2.7,7.3,6.8,7.9c0.3,0.1,0.7,0.1,1,0.1
	c0,0.7,0,1.3,0,1.9v0.1c0,0.3,0,0.6,0.1,1c0.1,0.8,0.6,1.5,1.4,1.9V50h2.8v-5h5.4v5h2.8h0.1v-5.4l0.1-0.1c0.3-0.2,0.7-0.5,0.9-0.9
	c0.2-0.4,0.4-1,0.4-1.7c0-0.7,0-1.5,0-2.1c1.7,0,3.2-0.5,4.5-1.5c2.2-1.6,3.3-3.8,3.3-6.6V15.4c0-0.2,0-0.5,0-0.7
	C39.6,12.1,37.7,9.8,35.3,9.1z M13,23.9v-1.6c0.6,0.4,1.2,0.7,1.9,0.7c0.7,0.2,1.4,0.3,2,0.3c3.1,0,6.1,0,9.2,0h7.2
	c1.4,0,2.7-0.4,3.8-1.2v1.2v8.3c0,1.7-0.6,3.1-1.8,4.1c-0.9,0.9-2,1.3-3.2,1.3H29c-3.7,0-7.3,0-10.9,0c-2.8,0-5-2.1-5.1-5
	C13,29.3,13,26.6,13,23.9z M37.2,17.8c-0.2,1.6-1.6,2.8-3.3,2.9c-0.3,0-0.5,0-0.8,0h-6.2c-3.3,0-6.6,0-9.9,0c-1.7,0-2.9-0.7-3.6-2.2
	c-0.1-0.3-0.2-0.6-0.2-0.8v-0.6c-0.1-0.9-0.1-1.8,0-2.7c0.1-0.8,0.6-1.6,1.3-2.2c0.5-0.4,1-0.6,1.6-0.7v4.9c0,1.2,0.5,1.7,1.7,1.7
	h14.8c1.2,0,1.7-0.5,1.7-1.7v-4.9c0.4,0.1,0.7,0.2,1.1,0.4c0.3,0.2,0.6,0.4,0.8,0.6c0.7,0.7,1.1,1.6,1.1,2.7v0.2
	C37.3,16.2,37.3,17,37.2,17.8z M18.8,15.4v-12c0-0.5,0-0.5,0.5-0.5h11.6c0.3,0,0.4,0,0.4,0s0,0,0,0.3c0,3.4,0,6.8,0,10.2v2H18.8z
	 M29.2,42.2c-2.8,0-5.5,0-8.3,0c-0.1-0.7-0.1-1.5,0-2.3v-0.1h8.4v0.1C29.3,40.7,29.3,41.4,29.2,42.2C29.3,42.2,29.3,42.2,29.2,42.2z
	"></path>

    <path
        d="M35.3,9.1c-0.4-0.2-0.9-0.2-1.3-0.3V7.3c0-1.4,0-2.7,0-4.1c0-2-1.2-3.2-3.2-3.2H19.2c-2,0-3.2,1.2-3.2,3.2v4v1.6
	c-3.3,0.3-5.8,3.1-5.8,6.5c0,1.9,0,3.9,0,5.9v0.5c0,3.4,0,6.7,0,10.1c0,4.1,2.7,7.3,6.8,7.9c0.3,0.1,0.7,0.1,1,0.1
	c0,0.7,0,1.3,0,1.9v0.1c0,0.3,0,0.6,0.1,1c0.1,0.8,0.6,1.5,1.4,1.9V50h2.8v-5h5.4v5h2.8h0.1v-5.4l0.1-0.1c0.3-0.2,0.7-0.5,0.9-0.9
	c0.2-0.4,0.4-1,0.4-1.7c0-0.7,0-1.5,0-2.1c1.7,0,3.2-0.5,4.5-1.5c2.2-1.6,3.3-3.8,3.3-6.6V15.4c0-0.2,0-0.5,0-0.7
	C39.6,12.1,37.7,9.8,35.3,9.1z M13,23.9v-1.6c0.6,0.4,1.2,0.7,1.9,0.7c0.7,0.2,1.4,0.3,2,0.3c3.1,0,6.1,0,9.2,0h7.2
	c1.4,0,2.7-0.4,3.8-1.2v1.2v8.3c0,1.7-0.6,3.1-1.8,4.1c-0.9,0.9-2,1.3-3.2,1.3H29c-3.7,0-7.3,0-10.9,0c-2.8,0-5-2.1-5.1-5
	C13,29.3,13,26.6,13,23.9z M37.2,17.8c-0.2,1.6-1.6,2.8-3.3,2.9c-0.3,0-0.5,0-0.8,0h-6.2c-3.3,0-6.6,0-9.9,0c-1.7,0-2.9-0.7-3.6-2.2
	c-0.1-0.3-0.2-0.6-0.2-0.8v-0.6c-0.1-0.9-0.1-1.8,0-2.7c0.1-0.8,0.6-1.6,1.3-2.2c0.5-0.4,1-0.6,1.6-0.7v4.9c0,1.2,0.5,1.7,1.7,1.7
	h14.8c1.2,0,1.7-0.5,1.7-1.7v-4.9c0.4,0.1,0.7,0.2,1.1,0.4c0.3,0.2,0.6,0.4,0.8,0.6c0.7,0.7,1.1,1.6,1.1,2.7v0.2
	C37.3,16.2,37.3,17,37.2,17.8z M18.8,15.4v-12c0-0.5,0-0.5,0.5-0.5h11.6c0.3,0,0.4,0,0.4,0s0,0,0,0.3c0,3.4,0,6.8,0,10.2v2H18.8z
	 M29.2,42.2c-2.8,0-5.5,0-8.3,0c-0.1-0.7-0.1-1.5,0-2.3v-0.1h8.4v0.1C29.3,40.7,29.3,41.4,29.2,42.2C29.3,42.2,29.3,42.2,29.2,42.2z
	"></path>

</svg>