<svg xmlns="http://www.w3.org/2000/svg" id="embeddedAndIoTSystems-svg">
	<path class="about-us_draw-icon"
		d="M50,6.6c-0.3-3.9-3.1-6.5-7-6.5c-0.5,0-1.2,0-1.6,0h-0.2c-23.4,0-35.3,0-35.4,0C2.5,0.6,0.2,3.3,0.1,6.6
		c0,0.3-0.2,37.2,0,38.1c0.6,3,3.3,5.2,6.4,5.2c0.4,0,9.3,0,18.2,0c9,0,18,0,18.1,0c4.1,0,7-2.9,7-7C49.8,42.3,50,7,50,6.6L50,6.6z
		 M20.2,24.3c0-0.6,0.2-1.1,0.6-1.4c0.4-0.4,0.8-0.5,1.4-0.6c1.1,0,2,0.9,2,2c0,0.5-0.2,1-0.6,1.4s-0.9,0.6-1.5,0.6l0,0
		C21.1,26.3,20.2,25.4,20.2,24.3z M27.4,10.1c0-1.1,0.9-2,1.9-2c0.5,0,1.1,0.2,1.4,0.6c0.4,0.4,0.6,0.9,0.6,1.4c0,1.1-0.9,2-2,2l0,0
		c-0.5,0-0.9-0.2-1.3-0.6C27.7,11.2,27.4,10.7,27.4,10.1z M2.4,26.9v-4.6l0,0c0.1,0,0.2,0,0.3,0h1.2c1.6,0,3.3,0,4.9,0
		c0.2,0,0.5,0.1,0.6,0.2c0.4,0.4,0.7,0.7,1.1,1.1c0.4,0.4,0.7,0.7,1.1,1.1c0.2,0.2,0.6,0.4,0.9,0.4c1.7,0,3.3,0,4.9,0
		c0.3,0,0.3,0,0.4,0.3c0.6,2.2,2.6,3.6,4.9,3.3c2-0.2,3.8-2.1,3.9-4.2c0.1-2.3-1.4-4.2-3.6-4.7c-1.9-0.4-3.9,0.6-4.8,2.5
		c-0.1,0.2-0.2,0.3-0.5,0.3c-0.7,0-1.3,0-2,0c-0.8,0-1.6,0-2.4,0c-0.2,0-0.4-0.1-0.6-0.3c-0.7-0.6-1.4-1.3-2-2
		c-0.4-0.4-0.7-0.5-1.2-0.5c-1.6,0-3.3,0-4.9,0H2.5v-3.1h1.8c1.3,0,2.5,0,3.8,0c0.5,0,0.9-0.1,1.3-0.4c2.2-1.8,4.1-3.2,5.8-4.6
		c0.2-0.2,0.5-0.3,0.8-0.3c2.9,0,5.9,0,8.8,0c0.3,0,0.4,0.1,0.5,0.3c0.8,2.1,2.8,3.2,5,2.8c1.9-0.3,3.5-2,3.7-4.1s-1.3-4.2-3.4-4.7
		c-2.2-0.6-4.4,0.6-5.3,2.7c-0.1,0.4-0.3,0.4-0.7,0.4c-3.2,0-6.3,0-9.4,0c-0.4,0-0.8,0.2-1.1,0.4c-0.9,0.7-1.9,1.5-2.8,2.2
		c-1,0.8-2,1.6-3.1,2.4C8,14,7.7,14.1,7.4,14.1c-1.3,0-2.5,0-3.8,0H2.4v-2.4c0-1.6,0-3.1,0-4.7c0-2.7,1.8-4.5,4.5-4.5h36
		c2.7,0,4.5,1.8,4.5,4.5s0,5.5,0,8.2v9.7h-2.7c-2.4,0-4.9,0-7.3,0c-0.5,0-0.8,0.1-1.1,0.5c-0.8,0.8-1.5,1.6-2.3,2.4l-0.8,0.8
		c-1.6-0.7-3-0.7-4.5,0.1c-1.8,1-2.7,3.2-2.1,5.2c0.7,2.1,2.5,3.4,4.8,3.2c2-0.1,3.7-1.8,4-3.8c0.1-0.9,0-1.8-0.4-2.6
		c-0.1-0.2-0.1-0.2,0.1-0.4c0.4-0.4,0.8-0.8,1.1-1.1c0.4-0.4,0.9-0.9,1.3-1.3c0.1-0.1,0.3-0.2,0.5-0.2c2.2,0,4.4,0,6.6,0h2.7
		c0.1,0,0.2,0,0.2,0s0,0,0,0.2c0,2,0,4.1,0,6.1v2.8c0,0,0,0,0,0.1h-2.6c-2.6,0-5.2,0-7.8,0c-0.3,0-0.7,0.2-1,0.4
		c-0.4,0.3-0.7,0.7-1.1,1.1c-0.3,0.3-0.7,0.7-1,1c-0.2,0.1-0.4,0.3-0.6,0.3c-2.5,0-4.8,0-7,0c-0.2,0-0.5-0.1-0.6-0.3
		c-0.5-0.4-0.9-0.9-1.3-1.3c-0.4-0.4-0.8-0.8-1.2-1.2c-0.2-0.2-0.5-0.3-0.8-0.3c-0.6,0-1.2,0-1.9,0c-0.3,0-0.5,0-0.6-0.4
		c-0.7-1.8-2.6-3.1-4.5-2.9c-2.1,0.2-3.7,1.6-4.1,3.5c-0.5,2.3,0.8,4.6,3.1,5.3c2.2,0.7,4.6-0.5,5.5-2.7c0.1-0.3,0.2-0.4,0.6-0.4
		c1-0.1,1.7,0.2,2.3,1c0.5,0.6,1,1.1,1.6,1.6l0.2,0.2c0.2,0.2,0.5,0.4,0.8,0.4c2.9,0,5.9,0,8.9,0c0.3,0,0.6-0.1,0.8-0.3
		c0.4-0.3,0.7-0.7,1-1c0.4-0.4,0.8-0.8,1.2-1.1c0.1-0.1,0.4-0.2,0.6-0.2c3.1,0,6.2,0,9.3,0l0,0c0.2,0,0.2,0,0.3,0c0,0,0,0,0,0.2
		c0,0.7,0,1.4,0,2.1c0,0.6,0,1.2,0,1.8c0,2.5-1.8,4.2-4.2,4.3c-0.1,0-0.2,0-0.3,0H35c-9.3,0-18.6,0-27.9,0l0,0c-1.9,0-3.2-0.7-3.9-2
		c-0.4-0.7-0.6-1.5-0.6-2.1C2.4,38,2.4,32.4,2.4,26.9z M17.7,37.5c0,0.5-0.2,1.1-0.6,1.4c-0.4,0.4-0.8,0.6-1.3,0.6l0,0
		c-1.1,0-2-0.9-2-2s0.9-2,2-2l0,0c0.5,0,0.9,0.2,1.3,0.6C17.5,36.4,17.7,36.9,17.7,37.5z M32.9,32.5c0,1.1-0.9,2-1.9,2l0,0
		c-0.5,0-1.1-0.2-1.4-0.6C29.2,33.5,29,33,29,32.5c0-1,0.9-2,1.9-2l0,0c0.5,0,1.1,0.2,1.4,0.6C32.7,31.5,32.9,32,32.9,32.5z"></path>
	<path class="about-us_draw-icon"
		d="M50,6.6c-0.3-3.9-3.1-6.5-7-6.5c-0.5,0-1.2,0-1.6,0h-0.2c-23.4,0-35.3,0-35.4,0C2.5,0.6,0.2,3.3,0.1,6.6
		c0,0.3-0.2,37.2,0,38.1c0.6,3,3.3,5.2,6.4,5.2c0.4,0,9.3,0,18.2,0c9,0,18,0,18.1,0c4.1,0,7-2.9,7-7C49.8,42.3,50,7,50,6.6L50,6.6z
		 M20.2,24.3c0-0.6,0.2-1.1,0.6-1.4c0.4-0.4,0.8-0.5,1.4-0.6c1.1,0,2,0.9,2,2c0,0.5-0.2,1-0.6,1.4s-0.9,0.6-1.5,0.6l0,0
		C21.1,26.3,20.2,25.4,20.2,24.3z M27.4,10.1c0-1.1,0.9-2,1.9-2c0.5,0,1.1,0.2,1.4,0.6c0.4,0.4,0.6,0.9,0.6,1.4c0,1.1-0.9,2-2,2l0,0
		c-0.5,0-0.9-0.2-1.3-0.6C27.7,11.2,27.4,10.7,27.4,10.1z M2.4,26.9v-4.6l0,0c0.1,0,0.2,0,0.3,0h1.2c1.6,0,3.3,0,4.9,0
		c0.2,0,0.5,0.1,0.6,0.2c0.4,0.4,0.7,0.7,1.1,1.1c0.4,0.4,0.7,0.7,1.1,1.1c0.2,0.2,0.6,0.4,0.9,0.4c1.7,0,3.3,0,4.9,0
		c0.3,0,0.3,0,0.4,0.3c0.6,2.2,2.6,3.6,4.9,3.3c2-0.2,3.8-2.1,3.9-4.2c0.1-2.3-1.4-4.2-3.6-4.7c-1.9-0.4-3.9,0.6-4.8,2.5
		c-0.1,0.2-0.2,0.3-0.5,0.3c-0.7,0-1.3,0-2,0c-0.8,0-1.6,0-2.4,0c-0.2,0-0.4-0.1-0.6-0.3c-0.7-0.6-1.4-1.3-2-2
		c-0.4-0.4-0.7-0.5-1.2-0.5c-1.6,0-3.3,0-4.9,0H2.5v-3.1h1.8c1.3,0,2.5,0,3.8,0c0.5,0,0.9-0.1,1.3-0.4c2.2-1.8,4.1-3.2,5.8-4.6
		c0.2-0.2,0.5-0.3,0.8-0.3c2.9,0,5.9,0,8.8,0c0.3,0,0.4,0.1,0.5,0.3c0.8,2.1,2.8,3.2,5,2.8c1.9-0.3,3.5-2,3.7-4.1s-1.3-4.2-3.4-4.7
		c-2.2-0.6-4.4,0.6-5.3,2.7c-0.1,0.4-0.3,0.4-0.7,0.4c-3.2,0-6.3,0-9.4,0c-0.4,0-0.8,0.2-1.1,0.4c-0.9,0.7-1.9,1.5-2.8,2.2
		c-1,0.8-2,1.6-3.1,2.4C8,14,7.7,14.1,7.4,14.1c-1.3,0-2.5,0-3.8,0H2.4v-2.4c0-1.6,0-3.1,0-4.7c0-2.7,1.8-4.5,4.5-4.5h36
		c2.7,0,4.5,1.8,4.5,4.5s0,5.5,0,8.2v9.7h-2.7c-2.4,0-4.9,0-7.3,0c-0.5,0-0.8,0.1-1.1,0.5c-0.8,0.8-1.5,1.6-2.3,2.4l-0.8,0.8
		c-1.6-0.7-3-0.7-4.5,0.1c-1.8,1-2.7,3.2-2.1,5.2c0.7,2.1,2.5,3.4,4.8,3.2c2-0.1,3.7-1.8,4-3.8c0.1-0.9,0-1.8-0.4-2.6
		c-0.1-0.2-0.1-0.2,0.1-0.4c0.4-0.4,0.8-0.8,1.1-1.1c0.4-0.4,0.9-0.9,1.3-1.3c0.1-0.1,0.3-0.2,0.5-0.2c2.2,0,4.4,0,6.6,0h2.7
		c0.1,0,0.2,0,0.2,0s0,0,0,0.2c0,2,0,4.1,0,6.1v2.8c0,0,0,0,0,0.1h-2.6c-2.6,0-5.2,0-7.8,0c-0.3,0-0.7,0.2-1,0.4
		c-0.4,0.3-0.7,0.7-1.1,1.1c-0.3,0.3-0.7,0.7-1,1c-0.2,0.1-0.4,0.3-0.6,0.3c-2.5,0-4.8,0-7,0c-0.2,0-0.5-0.1-0.6-0.3
		c-0.5-0.4-0.9-0.9-1.3-1.3c-0.4-0.4-0.8-0.8-1.2-1.2c-0.2-0.2-0.5-0.3-0.8-0.3c-0.6,0-1.2,0-1.9,0c-0.3,0-0.5,0-0.6-0.4
		c-0.7-1.8-2.6-3.1-4.5-2.9c-2.1,0.2-3.7,1.6-4.1,3.5c-0.5,2.3,0.8,4.6,3.1,5.3c2.2,0.7,4.6-0.5,5.5-2.7c0.1-0.3,0.2-0.4,0.6-0.4
		c1-0.1,1.7,0.2,2.3,1c0.5,0.6,1,1.1,1.6,1.6l0.2,0.2c0.2,0.2,0.5,0.4,0.8,0.4c2.9,0,5.9,0,8.9,0c0.3,0,0.6-0.1,0.8-0.3
		c0.4-0.3,0.7-0.7,1-1c0.4-0.4,0.8-0.8,1.2-1.1c0.1-0.1,0.4-0.2,0.6-0.2c3.1,0,6.2,0,9.3,0l0,0c0.2,0,0.2,0,0.3,0c0,0,0,0,0,0.2
		c0,0.7,0,1.4,0,2.1c0,0.6,0,1.2,0,1.8c0,2.5-1.8,4.2-4.2,4.3c-0.1,0-0.2,0-0.3,0H35c-9.3,0-18.6,0-27.9,0l0,0c-1.9,0-3.2-0.7-3.9-2
		c-0.4-0.7-0.6-1.5-0.6-2.1C2.4,38,2.4,32.4,2.4,26.9z M17.7,37.5c0,0.5-0.2,1.1-0.6,1.4c-0.4,0.4-0.8,0.6-1.3,0.6l0,0
		c-1.1,0-2-0.9-2-2s0.9-2,2-2l0,0c0.5,0,0.9,0.2,1.3,0.6C17.5,36.4,17.7,36.9,17.7,37.5z M32.9,32.5c0,1.1-0.9,2-1.9,2l0,0
		c-0.5,0-1.1-0.2-1.4-0.6C29.2,33.5,29,33,29,32.5c0-1,0.9-2,1.9-2l0,0c0.5,0,1.1,0.2,1.4,0.6C32.7,31.5,32.9,32,32.9,32.5z"></path>
</svg>