<svg xmlns="http://www.w3.org/2000/svg" id="fusesAndCircuitBreakers-svg">
    <path
        d="M48.8,7.5c1.6,1.7,1.6,4.1,0,5.9c-0.1,0.1-0.2,0.2-0.3,0.3C36.9,25.3,25.3,36.9,13.7,48.5c-1.7,1.7-3.7,2-5.5,0.8
					c-0.6-0.4-6.4-6.2-6.8-6.6c-1.9-1.9-1.9-4.4,0-6.3c11.7-11.7,23.3-23.4,35-35c1.9-1.9,4.3-1.9,6.3,0C43.1,1.8,48.5,7.2,48.8,7.5
					z M40.8,17.3c-1.1-1.1-2.2-2.2-3.2-3.2c-0.4-0.4-0.7-0.4-1.1-0.1c-2.5,1.3-4.6,3-6.4,5.1s-2.9,4.6-4.1,7c-2,4-4.9,7.2-8.7,9.6
					c-0.9,0.6-1.9,1.1-2.9,1.6c1.1,1.1,2.2,2.2,3.3,3.3C25.4,32.8,33.1,25.1,40.8,17.3z M9.5,32.4c0.7,0.7,1.4,1.4,2.1,2.1
					c0.3,0.3,0.6,0.4,1,0.2c2.6-1.1,4.9-2.7,7-4.6c2.3-2.2,3.7-4.9,5-7.8c1.3-3,3.2-5.5,5.7-7.6c1.4-1.2,3-2.2,4.5-3.4
					c-0.6-0.6-1.3-1.3-2.1-2.1C25,16.9,17.3,24.6,9.5,32.4z M7.5,34.4c-1.5,1.5-2.9,2.8-4.3,4.3c-0.6,0.6-0.5,1.3,0.1,2c2,2,4,4,6,6
					c0.8,0.8,1.4,0.8,2.2,0c1.1-1,2.1-2.1,3.1-3.1c0.3-0.3,0.6-0.6,1-1C12.9,39.7,10.2,37.1,7.5,34.4z M34.7,7.2
					c2.7,2.7,5.4,5.4,8.1,8.1c1.4-1.4,2.8-2.7,4.1-4.1c0.5-0.6,0.3-1.3-0.2-1.7c-2-2-4-4.1-6.1-6.1c-0.6-0.6-1.3-0.7-1.9-0.1
					C37.4,4.5,36.1,5.8,34.7,7.2z"></path>


    <path
        d="M48.8,7.5c1.6,1.7,1.6,4.1,0,5.9c-0.1,0.1-0.2,0.2-0.3,0.3C36.9,25.3,25.3,36.9,13.7,48.5c-1.7,1.7-3.7,2-5.5,0.8
					c-0.6-0.4-6.4-6.2-6.8-6.6c-1.9-1.9-1.9-4.4,0-6.3c11.7-11.7,23.3-23.4,35-35c1.9-1.9,4.3-1.9,6.3,0C43.1,1.8,48.5,7.2,48.8,7.5
					z M40.8,17.3c-1.1-1.1-2.2-2.2-3.2-3.2c-0.4-0.4-0.7-0.4-1.1-0.1c-2.5,1.3-4.6,3-6.4,5.1s-2.9,4.6-4.1,7c-2,4-4.9,7.2-8.7,9.6
					c-0.9,0.6-1.9,1.1-2.9,1.6c1.1,1.1,2.2,2.2,3.3,3.3C25.4,32.8,33.1,25.1,40.8,17.3z M9.5,32.4c0.7,0.7,1.4,1.4,2.1,2.1
					c0.3,0.3,0.6,0.4,1,0.2c2.6-1.1,4.9-2.7,7-4.6c2.3-2.2,3.7-4.9,5-7.8c1.3-3,3.2-5.5,5.7-7.6c1.4-1.2,3-2.2,4.5-3.4
					c-0.6-0.6-1.3-1.3-2.1-2.1C25,16.9,17.3,24.6,9.5,32.4z M7.5,34.4c-1.5,1.5-2.9,2.8-4.3,4.3c-0.6,0.6-0.5,1.3,0.1,2c2,2,4,4,6,6
					c0.8,0.8,1.4,0.8,2.2,0c1.1-1,2.1-2.1,3.1-3.1c0.3-0.3,0.6-0.6,1-1C12.9,39.7,10.2,37.1,7.5,34.4z M34.7,7.2
					c2.7,2.7,5.4,5.4,8.1,8.1c1.4-1.4,2.8-2.7,4.1-4.1c0.5-0.6,0.3-1.3-0.2-1.7c-2-2-4-4.1-6.1-6.1c-0.6-0.6-1.3-0.7-1.9-0.1
					C37.4,4.5,36.1,5.8,34.7,7.2z"></path>

</svg>