<svg xmlns="http://www.w3.org/2000/svg" id="lightSources-svg">
    <path
        d="M9,8.9l2.7,2.7c0.2,0.2,0.3,0.3,0.6,0.4c0.2,0.1,0.4,0.1,0.6,0.1c0.3,0,0.5-0.1,0.7-0.2c0.4-0.3,0.7-0.8,0.7-1.4l-0.1-0.3
			L14.1,10c-0.1-0.1-0.2-0.3-0.3-0.5c-0.3-0.3-0.6-0.6-0.9-0.9L12,7.7c-0.3-0.3-0.7-0.7-1-1c-0.6-0.6-1.4-0.6-2-0.1
			C8.3,7.2,8.3,8,8.9,8.7C8.9,8.7,8.9,8.8,9,8.9z"></path>
    <path
        d="M7.7,21.4c-1.3,0-2.7,0-4,0c-0.5,0-0.9,0.2-1.2,0.5c-0.2,0.3-0.4,0.6-0.3,1c0.1,0.6,0.5,1.3,1.6,1.3c0.5,0,0.9,0,1.4,0
			h2.6c1.1,0,1.5-0.7,1.5-1.3c0-0.5-0.2-0.8-0.4-1C8.6,21.6,8.2,21.4,7.7,21.4z"></path>
    <path
        d="M26.3,8.6c-3.6-0.4-6.9,0.6-9.9,2.8c-3.2,2.4-5.1,5.5-5.5,9.3c-0.4,3.4,0.2,6.6,1.9,9.4c0.7,1.2,1.5,2.4,2.3,3.6
			c0.4,0.5,0.7,1.1,1.1,1.6c1.1,1.7,1.6,3.4,1.6,5.1c0,1.5,0,3,0,4.3v1.4c0,2.2,1.5,3.7,3.7,3.7c0.8,0,1.6,0,2.4,0h1.6h0.7
			c0.4,0,0.8,0,1.2,0c0.5,0,1,0,1.5,0c1.9,0,3.4-1.5,3.4-3.3c0.1-1.8,0-3.6,0-5.2v-1.2c0-1.5,0.3-2.6,0.8-3.6
			c0.7-1.1,1.4-2.3,2.2-3.5c1.5-2.1,3.1-4.7,3.6-7.9c0.6-3.4,0.3-6.2-1-8.7C35.7,11.9,31.7,9.2,26.3,8.6z M29.4,46.6
			c0,0.3-0.3,0.5-0.6,0.5c-2.3,0-4.8,0-7.6,0c-0.4,0-0.7-0.3-0.7-0.7c0-0.2,0-0.5,0-0.7h9C29.5,46.1,29.5,46.4,29.4,46.6z
			 M29.5,42.9h-9v-1.4h9V42.9z M33.8,30.6L33.5,31l0.2,0.1L33.5,31c-0.3,0.5-0.6,0.9-1,1.4c-1.2,1.7-2.5,3.7-2.9,6.2h-9.2
			c0-0.3-0.1-0.5-0.1-0.8c-0.4-1.6-1.1-3.2-2.4-4.9l-0.5-0.7c-1-1.4-2-2.8-2.7-4.4c-1.5-3.5-1.6-6.8-0.2-9.9c0.9-2,2.4-3.6,4.5-4.9
			c1.8-1.1,3.8-1.7,5.9-1.7c2.7,0,5.1,0.8,7.2,2.4c1.3,1,2.3,2.2,3,3.5c0.9,1.6,1.3,3.2,1.3,5.2C36.5,25.3,35.6,28,33.8,30.6z"></path>
    <path
        d="M37.2,12.1L37.2,12.1h0.2l0.2-0.1c0.1,0,0.3-0.1,0.5-0.3c1-1,2-2,3-3c0.3-0.3,0.4-0.6,0.4-1c0-0.4-0.2-0.7-0.5-1
			c-0.5-0.5-1.3-0.5-1.9,0c-0.1,0.1-0.2,0.1-0.2,0.2l-2.7,2.7c-0.1,0.1-0.3,0.3-0.4,0.6c-0.2,0.4-0.2,0.9,0.1,1.3
			C36.2,11.9,36.7,12.1,37.2,12.1z"></path>
    <path
        d="M25,7.1L25,7.1c0.7,0,1.4-0.5,1.4-1.5V3c0-0.5,0-1,0-1.5C26.4,0.4,25.7,0,25,0c-0.6,0-0.9,0.3-1,0.4
			c-0.3,0.3-0.4,0.6-0.4,1.1c0,1.4,0,2.7,0,4.1c0,0.5,0.2,0.9,0.4,1.1C24.2,6.9,24.5,7.1,25,7.1z"></path>
    <path
        d="M46.3,21.4h-4c-1.1,0-1.5,0.7-1.5,1.3c0,0.4,0.1,0.7,0.3,1c0.2,0.2,0.6,0.5,1.2,0.5c0.3,0,0.5,0,0.8,0c0.2,0,0.4,0,0.6,0
			h0.6h1.2c0.3,0,0.5,0,0.8,0c0.6,0,1-0.3,1.2-0.5c0.2-0.3,0.4-0.6,0.3-1C47.8,22.1,47.4,21.4,46.3,21.4z"></path>
    <path
        d="M23.8,13.1L23.8,13.1c-0.4,0-0.7,0.1-1,0.1c-4.5,1-7.8,5-7.9,9.8v0.1L15,24c0.1,0.6,0.2,1.2,0.3,1.8
			c0.1,0.5,0.3,0.8,0.7,1c0.2,0.1,0.4,0.2,0.6,0.2s0.3,0,0.5-0.1c0.3-0.1,1.1-0.5,0.8-1.7l0.1-0.4c-0.1-0.4-0.2-0.8-0.2-1.2
			c-0.3-3.6,2-6.7,5.4-7.6c0.2,0,0.3-0.1,0.5-0.1s0.4-0.1,0.6-0.1c0.7-0.2,1.2-0.8,1-1.5C25.2,13.5,24.6,13,23.8,13.1z"></path>

    <path
        d="M9,8.9l2.7,2.7c0.2,0.2,0.3,0.3,0.6,0.4c0.2,0.1,0.4,0.1,0.6,0.1c0.3,0,0.5-0.1,0.7-0.2c0.4-0.3,0.7-0.8,0.7-1.4l-0.1-0.3
			L14.1,10c-0.1-0.1-0.2-0.3-0.3-0.5c-0.3-0.3-0.6-0.6-0.9-0.9L12,7.7c-0.3-0.3-0.7-0.7-1-1c-0.6-0.6-1.4-0.6-2-0.1
			C8.3,7.2,8.3,8,8.9,8.7C8.9,8.7,8.9,8.8,9,8.9z"></path>
    <path
        d="M7.7,21.4c-1.3,0-2.7,0-4,0c-0.5,0-0.9,0.2-1.2,0.5c-0.2,0.3-0.4,0.6-0.3,1c0.1,0.6,0.5,1.3,1.6,1.3c0.5,0,0.9,0,1.4,0
			h2.6c1.1,0,1.5-0.7,1.5-1.3c0-0.5-0.2-0.8-0.4-1C8.6,21.6,8.2,21.4,7.7,21.4z"></path>
    <path
        d="M26.3,8.6c-3.6-0.4-6.9,0.6-9.9,2.8c-3.2,2.4-5.1,5.5-5.5,9.3c-0.4,3.4,0.2,6.6,1.9,9.4c0.7,1.2,1.5,2.4,2.3,3.6
			c0.4,0.5,0.7,1.1,1.1,1.6c1.1,1.7,1.6,3.4,1.6,5.1c0,1.5,0,3,0,4.3v1.4c0,2.2,1.5,3.7,3.7,3.7c0.8,0,1.6,0,2.4,0h1.6h0.7
			c0.4,0,0.8,0,1.2,0c0.5,0,1,0,1.5,0c1.9,0,3.4-1.5,3.4-3.3c0.1-1.8,0-3.6,0-5.2v-1.2c0-1.5,0.3-2.6,0.8-3.6
			c0.7-1.1,1.4-2.3,2.2-3.5c1.5-2.1,3.1-4.7,3.6-7.9c0.6-3.4,0.3-6.2-1-8.7C35.7,11.9,31.7,9.2,26.3,8.6z M29.4,46.6
			c0,0.3-0.3,0.5-0.6,0.5c-2.3,0-4.8,0-7.6,0c-0.4,0-0.7-0.3-0.7-0.7c0-0.2,0-0.5,0-0.7h9C29.5,46.1,29.5,46.4,29.4,46.6z
			 M29.5,42.9h-9v-1.4h9V42.9z M33.8,30.6L33.5,31l0.2,0.1L33.5,31c-0.3,0.5-0.6,0.9-1,1.4c-1.2,1.7-2.5,3.7-2.9,6.2h-9.2
			c0-0.3-0.1-0.5-0.1-0.8c-0.4-1.6-1.1-3.2-2.4-4.9l-0.5-0.7c-1-1.4-2-2.8-2.7-4.4c-1.5-3.5-1.6-6.8-0.2-9.9c0.9-2,2.4-3.6,4.5-4.9
			c1.8-1.1,3.8-1.7,5.9-1.7c2.7,0,5.1,0.8,7.2,2.4c1.3,1,2.3,2.2,3,3.5c0.9,1.6,1.3,3.2,1.3,5.2C36.5,25.3,35.6,28,33.8,30.6z"></path>
    <path
        d="M37.2,12.1L37.2,12.1h0.2l0.2-0.1c0.1,0,0.3-0.1,0.5-0.3c1-1,2-2,3-3c0.3-0.3,0.4-0.6,0.4-1c0-0.4-0.2-0.7-0.5-1
			c-0.5-0.5-1.3-0.5-1.9,0c-0.1,0.1-0.2,0.1-0.2,0.2l-2.7,2.7c-0.1,0.1-0.3,0.3-0.4,0.6c-0.2,0.4-0.2,0.9,0.1,1.3
			C36.2,11.9,36.7,12.1,37.2,12.1z"></path>
    <path
        d="M25,7.1L25,7.1c0.7,0,1.4-0.5,1.4-1.5V3c0-0.5,0-1,0-1.5C26.4,0.4,25.7,0,25,0c-0.6,0-0.9,0.3-1,0.4
			c-0.3,0.3-0.4,0.6-0.4,1.1c0,1.4,0,2.7,0,4.1c0,0.5,0.2,0.9,0.4,1.1C24.2,6.9,24.5,7.1,25,7.1z"></path>
    <path
        d="M46.3,21.4h-4c-1.1,0-1.5,0.7-1.5,1.3c0,0.4,0.1,0.7,0.3,1c0.2,0.2,0.6,0.5,1.2,0.5c0.3,0,0.5,0,0.8,0c0.2,0,0.4,0,0.6,0
			h0.6h1.2c0.3,0,0.5,0,0.8,0c0.6,0,1-0.3,1.2-0.5c0.2-0.3,0.4-0.6,0.3-1C47.8,22.1,47.4,21.4,46.3,21.4z"></path>
    <path
        d="M23.8,13.1L23.8,13.1c-0.4,0-0.7,0.1-1,0.1c-4.5,1-7.8,5-7.9,9.8v0.1L15,24c0.1,0.6,0.2,1.2,0.3,1.8
			c0.1,0.5,0.3,0.8,0.7,1c0.2,0.1,0.4,0.2,0.6,0.2s0.3,0,0.5-0.1c0.3-0.1,1.1-0.5,0.8-1.7l0.1-0.4c-0.1-0.4-0.2-0.8-0.2-1.2
			c-0.3-3.6,2-6.7,5.4-7.6c0.2,0,0.3-0.1,0.5-0.1s0.4-0.1,0.6-0.1c0.7-0.2,1.2-0.8,1-1.5C25.2,13.5,24.6,13,23.8,13.1z"></path>

</svg>