<svg xmlns="http://www.w3.org/2000/svg" id="mechanical-svg">
    <path
        d="M21.9,30.1c-0.5-0.9-1.4-1.4-2.5-1.4s-2.1,0-3.2,0h-2.5c-1.1,0-2.2,0-3.3,0S8.5,29.2,8,30.1l-0.2,0.4
			c-1.4,2.5-2.9,5-4.3,7.4c-0.5,0.9-0.6,1.9,0,2.8l1.1,1.9c1.1,2,2.3,3.9,3.4,5.9c0.5,1,1.4,1.4,2.5,1.4h9c1.1,0,2-0.5,2.5-1.5
			c1.5-2.6,3-5.2,4.5-7.8c0.6-1,0.6-1.9,0-2.9C24.9,35.3,23.4,32.7,21.9,30.1z M13.7,47.5c-1.1,0-2.1,0-3.2,0c-0.2,0-0.2,0-0.3-0.2
			c-1.5-2.6-3-5.3-4.6-7.9c0-0.1-0.1-0.1,0-0.2c1.5-2.6,3-5.3,4.5-7.9c0.1-0.2,0.2-0.2,0.3-0.2c3,0,6,0,9,0c0.2,0,0.2,0,0.3,0.2
			c1.2,2.1,2.5,4.3,3.7,6.4l0.8,1.4c0.1,0.1,0.1,0.2,0,0.4l-4.5,7.8l0,0c-0.1,0.1-0.1,0.2-0.3,0.2c-0.6,0-1.1,0-1.7,0h-2.8H13.7z"></path>
    <path
        d="M22.1,39.2c-0.1-3.9-3.3-7.1-7.2-7.1h-0.1c-1.9,0-3.7,0.8-5,2.2s-2.1,3.2-2,5.1c0.1,4,3.2,7.1,7.2,7.1h0.1
			c1.9,0,3.7-0.8,5-2.2C21.4,42.9,22.1,41.1,22.1,39.2z M18.3,36.1c0.9,0.9,1.3,2.1,1.3,3.3s-0.6,2.4-1.5,3.3
			C17.2,43.6,16,44,14.8,44c-2.5-0.1-4.6-2.2-4.5-4.7c0-1.2,0.5-2.4,1.4-3.3c0.9-0.9,2.1-1.4,3.3-1.4h0.1
			C16.2,34.7,17.4,35.2,18.3,36.1z"></path>
    <path
        d="M46.8,37.7c-0.3-2.1-1.3-3.7-2.5-5.6c-4.5-7-8.9-14.1-13.4-21.1c-0.1-0.2-0.2-0.5-0.2-0.7c0.1-1.1,0.2-2.2,0.2-3.1l0.1-1
			c0.2-2.8,0.2-2.9-1.4-5.3C29,0,28.4-0.2,27.5,0.4L10.7,11c-0.9,0.6-1,1.1-0.5,2l0.3,0.5c0.3,0.5,0.6,1,1,1.5
			c0.3,0.4,0.7,0.7,1.1,0.9c0.9,0.4,1.9,0.7,2.8,1.1c1,0.4,1.9,0.7,2.9,1.1c0.2,0.1,0.5,0.3,0.7,0.5c1.9,3,3.9,6.1,5.8,9.1l3.3,5.3
			c1.6,2.6,3.3,5.2,4.9,7.8c0.5,0.7,1,1.4,1.6,2.1c1.4,1.5,3.1,2.6,5.2,3.1c1.1,0.3,2.2,0.5,3.3,0.8l1,0.2c0.2,0,0.4,0.1,0.5,0.1
			c0.6,0,1-0.4,1.2-1.1l0.1-0.6c0.3-1.1,0.5-2.2,0.7-3.3C47,40.6,47,39.1,46.8,37.7z M44.3,41.7l-0.6,2.7L42.2,44L44.3,41.7z
			 M33.7,19.8l0.2,0.2c0.6,0.9,1.1,1.8,1.7,2.6c-2.1,2.2-4.2,4.4-6.3,6.7L29,29.7l-0.2-0.4c-0.5-0.9-1.1-1.7-1.6-2.5
			C29.2,24.5,31.4,22.1,33.7,19.8z M30.5,31.3c0.1-0.1,0.2-0.2,0.3-0.3c2-2.1,3.9-4.2,5.9-6.2l0.2,0.3c0.5,0.9,1.1,1.7,1.6,2.5
			c-2.1,2.3-4.3,4.5-6.5,6.8v0.2l-0.1-0.2c-0.4-0.6-0.7-1.1-1.1-1.7c-0.1-0.1-0.2-0.3-0.3-0.4c-0.1-0.2-0.4-0.5-0.4-0.6
			C30.2,31.7,30.4,31.4,30.5,31.3z M40,29.7l0.1,0.1c0.6,0.9,1.2,1.8,1.7,2.7c-2,2.1-4,4.2-6,6.3l-0.7,0.7l-1.8-2.8L40,29.7z
			 M43.1,34.7c0.7,1.1,1.1,2.2,1.4,3.4l0,0c-1.7,1.8-3.4,3.6-5,5.3c-1.2-0.5-2.1-1.1-2.8-1.8C38.8,39.3,41,37,43.1,34.7z M28.8,5.1
			c-0.1,1-0.2,2-0.3,2.9c-0.1,0.7-0.1,1.4-0.2,2.1c0,0.1-0.1,0.3-0.2,0.4c-2.8,1.8-5.7,3.6-8.6,5.5c-0.1,0-0.3,0.1-0.4,0
			c-1.9-0.7-3.8-1.4-5.5-2.1c-0.1,0-0.2-0.1-0.3-0.2c-0.2-0.3-0.4-0.6-0.6-1l0,0l3.5-2.2C20.1,8,24.1,5.5,28,3
			c0.1-0.1,0.2-0.1,0.1-0.1c0,0,0.1,0.1,0.1,0.2C28.7,3.6,28.9,4.3,28.8,5.1z M29.2,12.7l3.2,5l-6.6,7l-4.4-7L29.2,12.7z"></path>
    <path
        d="M21.9,30.1c-0.5-0.9-1.4-1.4-2.5-1.4s-2.1,0-3.2,0h-2.5c-1.1,0-2.2,0-3.3,0S8.5,29.2,8,30.1l-0.2,0.4
			c-1.4,2.5-2.9,5-4.3,7.4c-0.5,0.9-0.6,1.9,0,2.8l1.1,1.9c1.1,2,2.3,3.9,3.4,5.9c0.5,1,1.4,1.4,2.5,1.4h9c1.1,0,2-0.5,2.5-1.5
			c1.5-2.6,3-5.2,4.5-7.8c0.6-1,0.6-1.9,0-2.9C24.9,35.3,23.4,32.7,21.9,30.1z M13.7,47.5c-1.1,0-2.1,0-3.2,0c-0.2,0-0.2,0-0.3-0.2
			c-1.5-2.6-3-5.3-4.6-7.9c0-0.1-0.1-0.1,0-0.2c1.5-2.6,3-5.3,4.5-7.9c0.1-0.2,0.2-0.2,0.3-0.2c3,0,6,0,9,0c0.2,0,0.2,0,0.3,0.2
			c1.2,2.1,2.5,4.3,3.7,6.4l0.8,1.4c0.1,0.1,0.1,0.2,0,0.4l-4.5,7.8l0,0c-0.1,0.1-0.1,0.2-0.3,0.2c-0.6,0-1.1,0-1.7,0h-2.8H13.7z"></path>
    <path
        d="M22.1,39.2c-0.1-3.9-3.3-7.1-7.2-7.1h-0.1c-1.9,0-3.7,0.8-5,2.2s-2.1,3.2-2,5.1c0.1,4,3.2,7.1,7.2,7.1h0.1
			c1.9,0,3.7-0.8,5-2.2C21.4,42.9,22.1,41.1,22.1,39.2z M18.3,36.1c0.9,0.9,1.3,2.1,1.3,3.3s-0.6,2.4-1.5,3.3
			C17.2,43.6,16,44,14.8,44c-2.5-0.1-4.6-2.2-4.5-4.7c0-1.2,0.5-2.4,1.4-3.3c0.9-0.9,2.1-1.4,3.3-1.4h0.1
			C16.2,34.7,17.4,35.2,18.3,36.1z"></path>
    <path
        d="M46.8,37.7c-0.3-2.1-1.3-3.7-2.5-5.6c-4.5-7-8.9-14.1-13.4-21.1c-0.1-0.2-0.2-0.5-0.2-0.7c0.1-1.1,0.2-2.2,0.2-3.1l0.1-1
			c0.2-2.8,0.2-2.9-1.4-5.3C29,0,28.4-0.2,27.5,0.4L10.7,11c-0.9,0.6-1,1.1-0.5,2l0.3,0.5c0.3,0.5,0.6,1,1,1.5
			c0.3,0.4,0.7,0.7,1.1,0.9c0.9,0.4,1.9,0.7,2.8,1.1c1,0.4,1.9,0.7,2.9,1.1c0.2,0.1,0.5,0.3,0.7,0.5c1.9,3,3.9,6.1,5.8,9.1l3.3,5.3
			c1.6,2.6,3.3,5.2,4.9,7.8c0.5,0.7,1,1.4,1.6,2.1c1.4,1.5,3.1,2.6,5.2,3.1c1.1,0.3,2.2,0.5,3.3,0.8l1,0.2c0.2,0,0.4,0.1,0.5,0.1
			c0.6,0,1-0.4,1.2-1.1l0.1-0.6c0.3-1.1,0.5-2.2,0.7-3.3C47,40.6,47,39.1,46.8,37.7z M44.3,41.7l-0.6,2.7L42.2,44L44.3,41.7z
			 M33.7,19.8l0.2,0.2c0.6,0.9,1.1,1.8,1.7,2.6c-2.1,2.2-4.2,4.4-6.3,6.7L29,29.7l-0.2-0.4c-0.5-0.9-1.1-1.7-1.6-2.5
			C29.2,24.5,31.4,22.1,33.7,19.8z M30.5,31.3c0.1-0.1,0.2-0.2,0.3-0.3c2-2.1,3.9-4.2,5.9-6.2l0.2,0.3c0.5,0.9,1.1,1.7,1.6,2.5
			c-2.1,2.3-4.3,4.5-6.5,6.8v0.2l-0.1-0.2c-0.4-0.6-0.7-1.1-1.1-1.7c-0.1-0.1-0.2-0.3-0.3-0.4c-0.1-0.2-0.4-0.5-0.4-0.6
			C30.2,31.7,30.4,31.4,30.5,31.3z M40,29.7l0.1,0.1c0.6,0.9,1.2,1.8,1.7,2.7c-2,2.1-4,4.2-6,6.3l-0.7,0.7l-1.8-2.8L40,29.7z
			 M43.1,34.7c0.7,1.1,1.1,2.2,1.4,3.4l0,0c-1.7,1.8-3.4,3.6-5,5.3c-1.2-0.5-2.1-1.1-2.8-1.8C38.8,39.3,41,37,43.1,34.7z M28.8,5.1
			c-0.1,1-0.2,2-0.3,2.9c-0.1,0.7-0.1,1.4-0.2,2.1c0,0.1-0.1,0.3-0.2,0.4c-2.8,1.8-5.7,3.6-8.6,5.5c-0.1,0-0.3,0.1-0.4,0
			c-1.9-0.7-3.8-1.4-5.5-2.1c-0.1,0-0.2-0.1-0.3-0.2c-0.2-0.3-0.4-0.6-0.6-1l0,0l3.5-2.2C20.1,8,24.1,5.5,28,3
			c0.1-0.1,0.2-0.1,0.1-0.1c0,0,0.1,0.1,0.1,0.2C28.7,3.6,28.9,4.3,28.8,5.1z M29.2,12.7l3.2,5l-6.6,7l-4.4-7L29.2,12.7z"></path>
</svg>