<svg xmlns="http://www.w3.org/2000/svg" id="optoelectronics-svg">
    <path
        d="M18.4,15.9C18.5,15.9,18.5,15.9,18.4,15.9c0.4,0,0.8-0.1,1-0.3c0.3-0.3,0.4-0.7,0.4-1.2c0-1.3,0.6-2.6,1.6-3.6
			s2.2-1.5,3.5-1.5l0,0c0.5,0,0.8-0.2,1-0.4c0.3-0.3,0.4-0.7,0.4-1.1c0-0.8-0.6-1.3-1.5-1.4l0,0c-4,0-7.7,3.6-7.8,7.6
			C17,15.5,17.8,15.8,18.4,15.9z"></path>
    <path
        d="M43.8,34.4c0-1.1-0.5-1.6-1.6-1.7c-0.4,0-0.9,0-1.3,0h-1.5v-6.6c0-3.7,0-7.5,0-11.2c0-1.3-0.1-2.4-0.3-3.5
			C37.6,4.6,31.8,0,24.9,0c-0.2,0-0.4,0-0.6,0C17,0.3,10.7,6.5,10.5,13.5c-0.1,3.9-0.1,7.9-0.1,11.8v0.3c0,1.7,0,3.4,0,5.1v2H8.9
			c-0.4,0-0.9,0-1.3,0c-1.1,0.1-1.5,0.5-1.5,1.6c0,1.5,0,2.9,0,4.4v1.4c0,1.6,0.4,2,2,2h7.8v6.2c0,1,0.5,1.7,1.4,1.7h0.1
			c0.3,0,0.6-0.1,0.9-0.3c0.3-0.3,0.5-0.8,0.5-1.4c0-0.2,0-3.3,0-4.2v-2h12.4v6.2c0,1,0.5,1.7,1.4,1.7c0.4,0,0.7-0.1,1-0.3
			c0.3-0.3,0.5-0.8,0.5-1.4v-6.2h3.8c1.5,0,2.9,0,4.3,0c1.1,0,1.6-0.5,1.6-1.6C43.9,38.6,43.9,36.6,43.8,34.4z M13.3,14.7
			C13.3,9,17,4.3,22.5,3.1c3.2-0.7,6.6,0,9.4,2c2.7,2,4.4,5,4.7,8.2c0.1,1.4,0.1,2.7,0.1,4.1v0.3c0,3.2,0,6.4,0,9.5v5.5H13.3v-6.6
			C13.3,22.3,13.3,18.5,13.3,14.7z M41,35.6v3.6H9.1v-3.6H41z"></path>

    <path
        d="M18.4,15.9C18.5,15.9,18.5,15.9,18.4,15.9c0.4,0,0.8-0.1,1-0.3c0.3-0.3,0.4-0.7,0.4-1.2c0-1.3,0.6-2.6,1.6-3.6
			s2.2-1.5,3.5-1.5l0,0c0.5,0,0.8-0.2,1-0.4c0.3-0.3,0.4-0.7,0.4-1.1c0-0.8-0.6-1.3-1.5-1.4l0,0c-4,0-7.7,3.6-7.8,7.6
			C17,15.5,17.8,15.8,18.4,15.9z"></path>
    <path
        d="M43.8,34.4c0-1.1-0.5-1.6-1.6-1.7c-0.4,0-0.9,0-1.3,0h-1.5v-6.6c0-3.7,0-7.5,0-11.2c0-1.3-0.1-2.4-0.3-3.5
			C37.6,4.6,31.8,0,24.9,0c-0.2,0-0.4,0-0.6,0C17,0.3,10.7,6.5,10.5,13.5c-0.1,3.9-0.1,7.9-0.1,11.8v0.3c0,1.7,0,3.4,0,5.1v2H8.9
			c-0.4,0-0.9,0-1.3,0c-1.1,0.1-1.5,0.5-1.5,1.6c0,1.5,0,2.9,0,4.4v1.4c0,1.6,0.4,2,2,2h7.8v6.2c0,1,0.5,1.7,1.4,1.7h0.1
			c0.3,0,0.6-0.1,0.9-0.3c0.3-0.3,0.5-0.8,0.5-1.4c0-0.2,0-3.3,0-4.2v-2h12.4v6.2c0,1,0.5,1.7,1.4,1.7c0.4,0,0.7-0.1,1-0.3
			c0.3-0.3,0.5-0.8,0.5-1.4v-6.2h3.8c1.5,0,2.9,0,4.3,0c1.1,0,1.6-0.5,1.6-1.6C43.9,38.6,43.9,36.6,43.8,34.4z M13.3,14.7
			C13.3,9,17,4.3,22.5,3.1c3.2-0.7,6.6,0,9.4,2c2.7,2,4.4,5,4.7,8.2c0.1,1.4,0.1,2.7,0.1,4.1v0.3c0,3.2,0,6.4,0,9.5v5.5H13.3v-6.6
			C13.3,22.3,13.3,18.5,13.3,14.7z M41,35.6v3.6H9.1v-3.6H41z"></path>
</svg>