<svg xmlns="http://www.w3.org/2000/svg" id="passives-svg">
    <path
        d="M17.8,43.4c1,1,1.7,1,2.7,0c0.4-0.4,0.7-0.7,1.1-1.1l21.8-21.8c1.1-1.1,1-1.8,0-2.8L39,13.3l3.5-3.5
		c2.3-2.3,4.6-4.6,6.8-6.9C49.8,2.5,50,2,50,1.5c0-0.4-0.2-0.7-0.5-1c-0.7-0.6-1.6-0.6-2.4,0.2c-1.4,1.4-2.9,2.9-4.3,4.3l-6.1,6.1
		l-4.4-4.4c-1.1-1.1-1.8-1.1-2.9,0C22.8,13.3,16.1,20,9.5,26.6l-2.8,2.8c-0.1,0.1-0.2,0.2-0.3,0.3c-0.7,0.8-0.7,1.6,0,2.4
		c0.6,0.7,1.3,1.3,2,2l2.7,2.7l-3.6,3.6c-2.3,2.3-4.6,4.6-6.9,6.9l0,0C0,47.8-0.1,48.4,0.1,49c0.2,0.5,0.6,0.8,1.1,0.9
		c0.6,0.1,1.2-0.1,1.7-0.6c2.3-2.3,4.5-4.5,6.8-6.8l2.7-2.7l0.9-0.9l1.6,1.6C15.9,41.5,16.8,42.5,17.8,43.4z M27.3,13.3l3.6-3.6
		l9.4,9.4l-3.6,3.6L27.3,13.3z M15.6,25l9.4-9.4l9.4,9.4L25,34.4L15.6,25z M9.7,30.8l3.6-3.6l9.4,9.4l-3.6,3.6L9.7,30.8z"></path>
    <path
        d="M17.8,43.4c1,1,1.7,1,2.7,0c0.4-0.4,0.7-0.7,1.1-1.1l21.8-21.8c1.1-1.1,1-1.8,0-2.8L39,13.3l3.5-3.5
		c2.3-2.3,4.6-4.6,6.8-6.9C49.8,2.5,50,2,50,1.5c0-0.4-0.2-0.7-0.5-1c-0.7-0.6-1.6-0.6-2.4,0.2c-1.4,1.4-2.9,2.9-4.3,4.3l-6.1,6.1
		l-4.4-4.4c-1.1-1.1-1.8-1.1-2.9,0C22.8,13.3,16.1,20,9.5,26.6l-2.8,2.8c-0.1,0.1-0.2,0.2-0.3,0.3c-0.7,0.8-0.7,1.6,0,2.4
		c0.6,0.7,1.3,1.3,2,2l2.7,2.7l-3.6,3.6c-2.3,2.3-4.6,4.6-6.9,6.9l0,0C0,47.8-0.1,48.4,0.1,49c0.2,0.5,0.6,0.8,1.1,0.9
		c0.6,0.1,1.2-0.1,1.7-0.6c2.3-2.3,4.5-4.5,6.8-6.8l2.7-2.7l0.9-0.9l1.6,1.6C15.9,41.5,16.8,42.5,17.8,43.4z M27.3,13.3l3.6-3.6
		l9.4,9.4l-3.6,3.6L27.3,13.3z M15.6,25l9.4-9.4l9.4,9.4L25,34.4L15.6,25z M9.7,30.8l3.6-3.6l9.4,9.4l-3.6,3.6L9.7,30.8z"></path>
</svg>