<svg xmlns="http://www.w3.org/2000/svg" id="powerSources-svg">
    <path
        d="M44.5,14H1.8C0.4,14,0,14.4,0,15.8v18.4C0,35.6,0.4,36,1.8,36h42.7c1.3,0,1.7-0.4,1.7-1.7V15.8C46.3,14.4,45.9,14,44.5,14
			z M43.8,33.5H2.5v-17h41.3V33.5z"></path>
    <path
        d="M50,22.3c0-0.9-0.5-1.5-1.3-1.5c-0.7,0-1.2,0.6-1.2,1.4c0,0.6,0,1.2,0,1.7v0.8c0,0.3,0,0.5,0,0.7s0,0.5,0,0.7
			c0,0.4,0,0.8,0,1.1c0,0.1,0.1,0.8,0.4,1.1c0.3,0.2,0.9,0.3,1.2,0.2c0.5-0.1,0.8-0.6,0.8-1.2v-1C50,25.1,50,23.7,50,22.3z"></path>
    <path
        d="M31.6,26h1c0.2,0,0.3,0,0.5,0c0,0.1,0,0.2,0,0.2c0,0.4,0,0.8,0,1.1c0,0.1,0.1,0.8,0.4,1.1c0.3,0.2,0.9,0.3,1.2,0.2
			c0.5-0.1,0.8-0.6,0.8-1.2v-1c0-0.2,0-0.3,0-0.5c0.4,0,0.8,0,1.2,0c0.9,0,1.5-0.5,1.5-1.3c0-0.7-0.6-1.2-1.4-1.2
			c-0.4,0-0.8,0-1.3,0c0-0.4,0-0.8,0-1.2c0-0.9-0.5-1.5-1.3-1.5c-0.7,0-1.2,0.6-1.2,1.4c0,0.4,0,0.8,0,1.3c-0.1,0-0.2,0-0.3,0
			c-0.4,0-0.8,0-1.1,0c-0.1,0-0.8,0.1-1.1,0.4c-0.2,0.3-0.3,0.9-0.2,1.2C30.5,25.7,31,26,31.6,26z"></path>
    <path
        d="M8.1,28.5c0.3,0.2,0.9,0.3,1.2,0.2c0.5-0.1,0.8-0.6,0.8-1.2v-1c0-1.4,0-2.8,0-4.2c0-0.9-0.5-1.5-1.3-1.5
			c-0.7,0-1.2,0.6-1.2,1.4c0,0.6,0,1.2,0,1.7v0.8c0,0.3,0,0.5,0,0.7s0,0.5,0,0.7c0,0.4,0,0.8,0,1.1C7.7,27.5,7.7,28.2,8.1,28.5z"></path>
    <path
        d="M44.5,14H1.8C0.4,14,0,14.4,0,15.8v18.4C0,35.6,0.4,36,1.8,36h42.7c1.3,0,1.7-0.4,1.7-1.7V15.8C46.3,14.4,45.9,14,44.5,14
			z M43.8,33.5H2.5v-17h41.3V33.5z"></path>
    <path
        d="M50,22.3c0-0.9-0.5-1.5-1.3-1.5c-0.7,0-1.2,0.6-1.2,1.4c0,0.6,0,1.2,0,1.7v0.8c0,0.3,0,0.5,0,0.7s0,0.5,0,0.7
			c0,0.4,0,0.8,0,1.1c0,0.1,0.1,0.8,0.4,1.1c0.3,0.2,0.9,0.3,1.2,0.2c0.5-0.1,0.8-0.6,0.8-1.2v-1C50,25.1,50,23.7,50,22.3z"></path>
    <path
        d="M31.6,26h1c0.2,0,0.3,0,0.5,0c0,0.1,0,0.2,0,0.2c0,0.4,0,0.8,0,1.1c0,0.1,0.1,0.8,0.4,1.1c0.3,0.2,0.9,0.3,1.2,0.2
			c0.5-0.1,0.8-0.6,0.8-1.2v-1c0-0.2,0-0.3,0-0.5c0.4,0,0.8,0,1.2,0c0.9,0,1.5-0.5,1.5-1.3c0-0.7-0.6-1.2-1.4-1.2
			c-0.4,0-0.8,0-1.3,0c0-0.4,0-0.8,0-1.2c0-0.9-0.5-1.5-1.3-1.5c-0.7,0-1.2,0.6-1.2,1.4c0,0.4,0,0.8,0,1.3c-0.1,0-0.2,0-0.3,0
			c-0.4,0-0.8,0-1.1,0c-0.1,0-0.8,0.1-1.1,0.4c-0.2,0.3-0.3,0.9-0.2,1.2C30.5,25.7,31,26,31.6,26z"></path>
    <path
        d="M8.1,28.5c0.3,0.2,0.9,0.3,1.2,0.2c0.5-0.1,0.8-0.6,0.8-1.2v-1c0-1.4,0-2.8,0-4.2c0-0.9-0.5-1.5-1.3-1.5
			c-0.7,0-1.2,0.6-1.2,1.4c0,0.6,0,1.2,0,1.7v0.8c0,0.3,0,0.5,0,0.7s0,0.5,0,0.7c0,0.4,0,0.8,0,1.1C7.7,27.5,7.7,28.2,8.1,28.5z"></path>
</svg>