<svg xmlns="http://www.w3.org/2000/svg" id="relaysAndContactors-svg">
    <path
        d="M49.5,35.7c-2-2-4-4-5.9-5.9c-0.7-0.7-1.6-0.7-2.3,0c-0.6,0.6-0.6,1.6,0,2.3c0.2,0.2,0.3,0.4,0.5,0.5l2.7,2.6
			c-0.7,0-1.4,0-2.1,0c-2.1,0-4.3,0-6.4,0c-1.3,0-2.5-0.6-3.4-1.6c-1.5-1.7-3-3.4-4.4-5.1l-4.3-5c-2.5-2.9-4.9-5.7-7.4-8.6
			c-1.9-2.2-4.3-3.3-7.3-3.3c-1.6,0-3.3,0-4.9,0H2c-0.1,0-0.3,0-0.4,0c-0.6,0.1-1.1,0.5-1.3,1c-0.2,0.6-0.1,1.1,0.2,1.6
			c0.4,0.6,1.1,0.6,1.5,0.6c1.1,0,2.3,0,3.4,0c1.3,0,2.7,0,4,0c1.1,0,2.1,0.2,2.9,0.7c0.7,0.4,1.3,1,1.9,1.7l6.4,7.5
			c3,3.5,6,7,9,10.5c1.8,2.1,4.2,3.2,7.1,3.2l0,0c1.9,0,3.9,0,5.8,0h1.9l-0.8,0.8c-0.8,0.7-1.5,1.5-2.3,2.2
			c-0.6,0.6-0.7,1.7-0.1,2.3c0.3,0.3,0.7,0.5,1.2,0.5l0,0c0.4,0,0.8-0.2,1.1-0.5c2-2,4-4,6-6C50.2,37.3,50.2,36.3,49.5,35.7z"></path>
    <path
        d="M25.7,22.5l0.7,0.9l0.4-0.4c0.1-0.1,0.1-0.2,0.2-0.2l1.5-1.7c1.2-1.4,2.4-2.7,3.5-4.1c1.2-1.4,2.6-2.1,4.5-2.1
			c2,0,3.9,0,5.9,0h2l-1.2,1.2c-0.7,0.7-1.4,1.4-2.1,2.1c-0.5,0.5-0.6,1.2-0.3,1.8c0.3,0.7,0.9,1,1.6,0.8c0.4-0.1,0.8-0.3,1.2-0.7
			c1.7-1.6,3.3-3.3,5-5l0.6-0.6c0.8-0.8,0.8-1.7,0-2.5c-0.6-0.7-1.3-1.3-1.9-1.9l-1.6-1.7c-0.7-0.7-1.5-1.5-2.2-2.2
			c-0.5-0.5-1.1-0.6-1.7-0.4c-0.3,0-0.8,0.3-1,1.2c-0.1,0.5,0.1,1,0.5,1.5c1,1,2,2,3,3l0.1,0.1h-2.3c-2,0-3.9,0-5.9,0
			c-2.5,0-4.6,0.9-6.2,2.7c-0.7,0.8-1.4,1.5-2,2.3l-0.6,0.7c-0.6,0.7-1.3,1.5-1.9,2.2l-0.8,0.9c-0.1,0.1-0.5,0.5-0.1,1
			C25,21.8,25.3,22.2,25.7,22.5z"></path>
    <path
        d="M20.2,27.4l-0.7-0.8L19.1,27c-0.1,0.1-0.1,0.1-0.2,0.2l-1.2,1.4c-1.3,1.5-2.6,3-3.9,4.5c-1.2,1.4-2.6,2.1-4.4,2
			c-1,0-2,0-3,0H5H4c-0.8,0-1.6,0-2.3,0c-0.6,0-1.2,0.3-1.5,0.8s-0.3,1,0,1.5c0.3,0.6,0.9,0.9,1.7,0.9l0,0h1.2c2,0,4.1,0,6.1,0l0,0
			c2.7,0,5-1,6.7-2.9c1.2-1.3,2.3-2.6,3.4-4c0.6-0.7,1.2-1.4,1.8-2.1c0.3-0.3,0.3-0.7,0-1C20.9,28.2,20.5,27.8,20.2,27.4z"></path>

    <path
        d="M49.5,35.7c-2-2-4-4-5.9-5.9c-0.7-0.7-1.6-0.7-2.3,0c-0.6,0.6-0.6,1.6,0,2.3c0.2,0.2,0.3,0.4,0.5,0.5l2.7,2.6
			c-0.7,0-1.4,0-2.1,0c-2.1,0-4.3,0-6.4,0c-1.3,0-2.5-0.6-3.4-1.6c-1.5-1.7-3-3.4-4.4-5.1l-4.3-5c-2.5-2.9-4.9-5.7-7.4-8.6
			c-1.9-2.2-4.3-3.3-7.3-3.3c-1.6,0-3.3,0-4.9,0H2c-0.1,0-0.3,0-0.4,0c-0.6,0.1-1.1,0.5-1.3,1c-0.2,0.6-0.1,1.1,0.2,1.6
			c0.4,0.6,1.1,0.6,1.5,0.6c1.1,0,2.3,0,3.4,0c1.3,0,2.7,0,4,0c1.1,0,2.1,0.2,2.9,0.7c0.7,0.4,1.3,1,1.9,1.7l6.4,7.5
			c3,3.5,6,7,9,10.5c1.8,2.1,4.2,3.2,7.1,3.2l0,0c1.9,0,3.9,0,5.8,0h1.9l-0.8,0.8c-0.8,0.7-1.5,1.5-2.3,2.2
			c-0.6,0.6-0.7,1.7-0.1,2.3c0.3,0.3,0.7,0.5,1.2,0.5l0,0c0.4,0,0.8-0.2,1.1-0.5c2-2,4-4,6-6C50.2,37.3,50.2,36.3,49.5,35.7z"></path>
    <path
        d="M25.7,22.5l0.7,0.9l0.4-0.4c0.1-0.1,0.1-0.2,0.2-0.2l1.5-1.7c1.2-1.4,2.4-2.7,3.5-4.1c1.2-1.4,2.6-2.1,4.5-2.1
			c2,0,3.9,0,5.9,0h2l-1.2,1.2c-0.7,0.7-1.4,1.4-2.1,2.1c-0.5,0.5-0.6,1.2-0.3,1.8c0.3,0.7,0.9,1,1.6,0.8c0.4-0.1,0.8-0.3,1.2-0.7
			c1.7-1.6,3.3-3.3,5-5l0.6-0.6c0.8-0.8,0.8-1.7,0-2.5c-0.6-0.7-1.3-1.3-1.9-1.9l-1.6-1.7c-0.7-0.7-1.5-1.5-2.2-2.2
			c-0.5-0.5-1.1-0.6-1.7-0.4c-0.3,0-0.8,0.3-1,1.2c-0.1,0.5,0.1,1,0.5,1.5c1,1,2,2,3,3l0.1,0.1h-2.3c-2,0-3.9,0-5.9,0
			c-2.5,0-4.6,0.9-6.2,2.7c-0.7,0.8-1.4,1.5-2,2.3l-0.6,0.7c-0.6,0.7-1.3,1.5-1.9,2.2l-0.8,0.9c-0.1,0.1-0.5,0.5-0.1,1
			C25,21.8,25.3,22.2,25.7,22.5z"></path>
    <path
        d="M20.2,27.4l-0.7-0.8L19.1,27c-0.1,0.1-0.1,0.1-0.2,0.2l-1.2,1.4c-1.3,1.5-2.6,3-3.9,4.5c-1.2,1.4-2.6,2.1-4.4,2
			c-1,0-2,0-3,0H5H4c-0.8,0-1.6,0-2.3,0c-0.6,0-1.2,0.3-1.5,0.8s-0.3,1,0,1.5c0.3,0.6,0.9,0.9,1.7,0.9l0,0h1.2c2,0,4.1,0,6.1,0l0,0
			c2.7,0,5-1,6.7-2.9c1.2-1.3,2.3-2.6,3.4-4c0.6-0.7,1.2-1.4,1.8-2.1c0.3-0.3,0.3-0.7,0-1C20.9,28.2,20.5,27.8,20.2,27.4z"></path>

</svg>