<svg xmlns="http://www.w3.org/2000/svg" id="soundSources-svg">
    <path
        d="M44.8,12.4c-0.4-0.4-1.4-1.4-2.3-0.5c-0.3,0.3-0.4,0.6-0.4,0.9c0,0.5,0.2,0.9,0.8,1.5c4.5,4.9,5.6,10.5,3.3,16.7
			c-0.7,1.8-1.8,3.5-3.4,5.2c-0.7,0.7-0.8,1.5-0.1,2.1c0.3,0.3,0.6,0.4,0.9,0.4c0.5,0,0.9-0.4,1.1-0.6c3.6-3.7,5.4-7.9,5.5-13
			C49.9,20.1,48.1,15.8,44.8,12.4z"></path>
    <path
        d="M42.8,18.8c-0.5-0.9-1.2-1.6-1.8-2.4l-0.4-0.5c-0.3-0.3-0.6-0.5-1-0.5s-0.7,0.1-1,0.4c-0.6,0.6-0.6,1.3,0,2
			c0.1,0.1,0.2,0.2,0.3,0.4l0.1,0.1c3.7,3.7,3.6,10-0.2,13.7c-0.2,0.2-0.4,0.4-0.5,0.7c-0.3,0.7-0.2,1.4,0.4,1.9
			c0.3,0.2,0.5,0.3,0.8,0.3c0.4,0,0.7-0.2,1-0.5c2.6-2.5,4-5.7,4-8.9C44.4,22.5,43.9,20.6,42.8,18.8z"></path>
    <path
        d="M34.3,18c0-3.6,0-7.1,0-10.7c0-0.7,0-1.2-0.2-1.8c-0.4-0.9-1.1-1.6-2-1.9C31.4,3.4,30.3,3.3,29,4
			c-1.8,1.1-3.7,2.1-5.6,3.1c-1.8,1-3.7,2.1-5.5,3.1c-1,0.5-1.9,1.1-2.8,1.7c-0.7,0.4-1.4,0.8-2.1,1.2c0,0-0.1,0-0.2,0
			c-0.2-0.1-0.4-0.1-0.6-0.2c-0.5-0.1-0.9-0.3-1.4-0.3c-2-0.1-4.1-0.1-6.6,0c-2.6,0.1-4,1.5-4,4c0,5.2,0,10.7,0,16.7
			c0,2.5,1.5,4,4.1,4c2.1,0,4.3,0,6.4,0c0.1,0,0.1,0,0.2,0c0.4,0,0.9,0,1.3-0.3c0.5-0.4,0.7-0.2,1.4,0.2c0.1,0.1,0.2,0.1,0.3,0.2
			c1.8,1.1,3.7,2.1,5.5,3.1l4.4,2.4c1.9,1,3.8,2.1,5.7,3.1c0.5,0.3,1.1,0.4,1.6,0.4c0.4,0,0.8-0.1,1.1-0.2c0.9-0.3,1.5-1,1.9-1.9
			c0.2-0.6,0.2-1.2,0.2-1.8c0-4.1,0-8.1,0-12.2v-0.6c2.9-0.6,4.9-3,4.9-6C39.2,21,37.1,18.5,34.3,18z M36.6,24c0,1.5-1,2.9-2.4,3.3
			v-6.7C35.7,21.1,36.6,22.4,36.6,24z M28,8.3c0-0.5,0.1-0.6,0.4-0.7c0.5-0.2,0.9-0.5,1.4-0.8c0.2-0.1,0.4-0.3,0.7-0.4
			c0.4-0.2,0.7-0.3,0.8-0.2c0.1,0.1,0.2,0.3,0.2,0.8v35.8c0,0.2,0,0.5,0,0.7s-0.1,0.3-0.2,0.4c-0.1,0-0.2,0-0.3,0
			c-0.9-0.5-1.9-1.1-2.8-1.6c0,0,0-0.1-0.1-0.2V42c0-0.1,0-0.1,0-0.2v-6C28,26.7,28,17.5,28,8.3z M25.1,9.4v31.3L18.5,37
			c-1.1-0.6-2.3-1.3-3.4-1.9c-0.4-0.2-0.5-0.4-0.5-0.9c0-6.1,0-12.2,0-18.4c0-0.5,0.1-0.7,0.4-0.8c2.5-1.4,4.9-2.7,7.4-4.1L25.1,9.4
			z M11.9,27c0,2.1,0,4.2,0,6.3c0,1-0.3,1.3-1.3,1.3c-2.2,0-4.3,0-6.5,0c-0.9,0-1.2-0.3-1.2-1.2c0-5.7,0-11.4,0-16.9
			c0-0.9,0.3-1.2,1.2-1.2h6.6c0.9,0,1.2,0.3,1.2,1.2c0,2,0,4,0,6v2.4L11.9,27z"></path>
    <path
        d="M44.8,12.4c-0.4-0.4-1.4-1.4-2.3-0.5c-0.3,0.3-0.4,0.6-0.4,0.9c0,0.5,0.2,0.9,0.8,1.5c4.5,4.9,5.6,10.5,3.3,16.7
			c-0.7,1.8-1.8,3.5-3.4,5.2c-0.7,0.7-0.8,1.5-0.1,2.1c0.3,0.3,0.6,0.4,0.9,0.4c0.5,0,0.9-0.4,1.1-0.6c3.6-3.7,5.4-7.9,5.5-13
			C49.9,20.1,48.1,15.8,44.8,12.4z"></path>
    <path
        d="M42.8,18.8c-0.5-0.9-1.2-1.6-1.8-2.4l-0.4-0.5c-0.3-0.3-0.6-0.5-1-0.5s-0.7,0.1-1,0.4c-0.6,0.6-0.6,1.3,0,2
			c0.1,0.1,0.2,0.2,0.3,0.4l0.1,0.1c3.7,3.7,3.6,10-0.2,13.7c-0.2,0.2-0.4,0.4-0.5,0.7c-0.3,0.7-0.2,1.4,0.4,1.9
			c0.3,0.2,0.5,0.3,0.8,0.3c0.4,0,0.7-0.2,1-0.5c2.6-2.5,4-5.7,4-8.9C44.4,22.5,43.9,20.6,42.8,18.8z"></path>
    <path
        d="M34.3,18c0-3.6,0-7.1,0-10.7c0-0.7,0-1.2-0.2-1.8c-0.4-0.9-1.1-1.6-2-1.9C31.4,3.4,30.3,3.3,29,4
			c-1.8,1.1-3.7,2.1-5.6,3.1c-1.8,1-3.7,2.1-5.5,3.1c-1,0.5-1.9,1.1-2.8,1.7c-0.7,0.4-1.4,0.8-2.1,1.2c0,0-0.1,0-0.2,0
			c-0.2-0.1-0.4-0.1-0.6-0.2c-0.5-0.1-0.9-0.3-1.4-0.3c-2-0.1-4.1-0.1-6.6,0c-2.6,0.1-4,1.5-4,4c0,5.2,0,10.7,0,16.7
			c0,2.5,1.5,4,4.1,4c2.1,0,4.3,0,6.4,0c0.1,0,0.1,0,0.2,0c0.4,0,0.9,0,1.3-0.3c0.5-0.4,0.7-0.2,1.4,0.2c0.1,0.1,0.2,0.1,0.3,0.2
			c1.8,1.1,3.7,2.1,5.5,3.1l4.4,2.4c1.9,1,3.8,2.1,5.7,3.1c0.5,0.3,1.1,0.4,1.6,0.4c0.4,0,0.8-0.1,1.1-0.2c0.9-0.3,1.5-1,1.9-1.9
			c0.2-0.6,0.2-1.2,0.2-1.8c0-4.1,0-8.1,0-12.2v-0.6c2.9-0.6,4.9-3,4.9-6C39.2,21,37.1,18.5,34.3,18z M36.6,24c0,1.5-1,2.9-2.4,3.3
			v-6.7C35.7,21.1,36.6,22.4,36.6,24z M28,8.3c0-0.5,0.1-0.6,0.4-0.7c0.5-0.2,0.9-0.5,1.4-0.8c0.2-0.1,0.4-0.3,0.7-0.4
			c0.4-0.2,0.7-0.3,0.8-0.2c0.1,0.1,0.2,0.3,0.2,0.8v35.8c0,0.2,0,0.5,0,0.7s-0.1,0.3-0.2,0.4c-0.1,0-0.2,0-0.3,0
			c-0.9-0.5-1.9-1.1-2.8-1.6c0,0,0-0.1-0.1-0.2V42c0-0.1,0-0.1,0-0.2v-6C28,26.7,28,17.5,28,8.3z M25.1,9.4v31.3L18.5,37
			c-1.1-0.6-2.3-1.3-3.4-1.9c-0.4-0.2-0.5-0.4-0.5-0.9c0-6.1,0-12.2,0-18.4c0-0.5,0.1-0.7,0.4-0.8c2.5-1.4,4.9-2.7,7.4-4.1L25.1,9.4
			z M11.9,27c0,2.1,0,4.2,0,6.3c0,1-0.3,1.3-1.3,1.3c-2.2,0-4.3,0-6.5,0c-0.9,0-1.2-0.3-1.2-1.2c0-5.7,0-11.4,0-16.9
			c0-0.9,0.3-1.2,1.2-1.2h6.6c0.9,0,1.2,0.3,1.2,1.2c0,2,0,4,0,6v2.4L11.9,27z"></path>
</svg>