<!-- close.svg -->
<svg xmlns="http://www.w3.org/2000/svg" id="close-svg">
        <path stroke="null"
            d="m12.77444,12.1306c-0.51313,-0.51313 -1.14029,-1.14029 -1.65341,-1.65341l-1.88147,-1.88147l0.22806,-0.28507c0.05701,-0.05701 0.11403,-0.17104 0.22806,-0.22806l3.07877,-3.07877c0.3991,-0.3991 0.3991,-0.91223 0.05701,-1.25431c-0.34209,-0.34209 -0.7982,-0.34209 -1.1973,0.11403l-3.13579,3.13579c-0.05701,0.05701 -0.11403,0.11403 -0.22806,0.17104l-0.28507,0.28507l-0.22806,-0.34209c-0.05701,-0.05701 -0.11403,-0.17104 -0.17104,-0.22806l-1.25431,-1.25431c-0.57014,-0.57014 -1.14029,-1.14029 -1.76744,-1.76744c-0.22806,-0.22806 -0.3991,-0.34209 -0.68417,-0.34209c-0.05701,0 -0.05701,0 -0.11403,0c-0.3991,0.05701 -0.57014,0.22806 -0.68417,0.51313c-0.11403,0.34209 -0.05701,0.57014 0.28507,0.91223c0.85521,0.85521 1.76744,1.71043 2.67967,2.62266l0.96924,0.96924l-1.02626,0.96924c-0.91223,0.91223 -1.76744,1.76744 -2.62266,2.62266c-0.17104,0.17104 -0.28507,0.34209 -0.28507,0.51313c-0.05701,0.34209 0.11403,0.68417 0.45611,0.85521c0.34209,0.17104 0.68417,0.11403 0.96924,-0.17104c0.68417,-0.68417 1.36834,-1.36834 2.10953,-2.10953l1.08327,-1.08327c0.05701,-0.05701 0.11403,-0.11403 0.22806,-0.17104l0.22806,-0.22806l0.22806,0.22806c0.05701,0.05701 0.11403,0.11403 0.22806,0.17104l2.96474,2.96474c0.05701,0.05701 0.11403,0.11403 0.17104,0.17104c0.3991,0.3991 0.85521,0.3991 1.1973,0.05701c0.28507,-0.34209 0.22806,-0.91223 -0.17104,-1.1973z">
        </path>
</svg>