<!-- user.svg -->
<svg xmlns="http://www.w3.org/2000/svg" id="user-svg">
        <path d="M47.1,47.8c-0.1-1-0.1-2-0.3-3c-1.4-7.1-5.1-12.5-11.1-16c-4.9-2.8-10-3.6-15.3-2.3C13.6,28,8.4,32.1,5.2,38.6
            c-1.5,2.9-2.2,6.2-2.3,9.8c0,1,0.5,1.4,0.9,1.5C4,50,4.2,50,4.5,50c5.5,0,11.2,0,16.7,0h13.6c1.4,0,2.7,0,4.1,0c2.2,0,4.5,0,6.7,0
            c0.6,0,1-0.1,1.2-0.4c0.3-0.4,0.4-0.8,0.3-1.3C47.1,48.2,47.1,48,47.1,47.8z M44.6,47.4h-39c0.3-8.9,7.3-18.3,18.5-18.9
            c5.1-0.3,10,1.5,13.8,4.9C41.8,37,44.2,42,44.6,47.4z"></path>
        <path d="M25,23.9L25,23.9c6.6,0,12.1-5.4,12-12c0-3.2-1.3-6.2-3.6-8.5C31.2,1.3,28.1,0,25,0l0,0c-6.6,0-12,5.4-12,12
            c0,3.2,1.3,6.2,3.5,8.5S21.8,23.9,25,23.9z M15.5,11.9c0-2.5,1-5,2.8-6.7c1.8-1.8,4.2-2.7,6.6-2.7l0,0c2.5,0,5,1,6.7,2.8
            c1.8,1.8,2.8,4.2,2.8,6.7c0,5.2-4.3,9.4-9.4,9.4l0,0C19.8,21.4,15.5,17.1,15.5,11.9z"></path>
</svg>