<svg xmlns="http://www.w3.org/2000/svg" id="computerAccessories-svg">
	<path
		d="M37.5,16.4L37.5,16.4c-1.6-1.6-3.7-1.6-5.3,0l-5.4,5.4l-1.4-1.4c-0.7-0.7-1.3-0.7-2,0L20.8,23c-3.4,3.4-6.8,6.8-10.1,10.1
			c-1.1,1.1-1.9,2.4-2.4,3.9c-1.4,4.4,0.4,9.3,4.5,11.6c1.5,0.9,3.3,1.3,5,1.3c2.6,0,5.1-1,7-2.9c3.2-3.1,6.4-6.4,9.3-9.3l3.4-3.4
			c0.7-0.7,0.7-1.4,0-2.1L35.9,31l1.2-1.2c1.4-1.4,2.8-2.8,4.2-4.2c1.6-1.6,1.6-3.7,0-5.3C40.1,19,38.8,17.7,37.5,16.4z M22.2,46.1
			c-2.2,1.6-4.7,2-7.3,1c-2.3-0.9-4-2.9-4.6-5.4c-0.5-2.2,0-4.4,1.4-6.2L22.2,46.1z M16.3,30.8l2.1-2l0,0l1.5-1.5
			c1.5-1.5,3-3,4.5-4.5l0,0l0,0c2.5,2.5,5,5.1,7.5,7.6l1.5,1.5c0.5,0.5,1.1,1.1,1.7,1.7l0,0c-1.3,1.3-2.6,2.6-3.9,3.9
			c-2.2,2-4.7,4.5-7.2,6.9L13.4,33.7C14.4,32.8,15.3,31.8,16.3,30.8z M34.3,29.3l-5.9-5.9l4.6-4.6l0.3-0.3c0.2-0.2,0.4-0.4,0.6-0.6
			c0.5-0.5,1.2-0.5,1.7,0c1.4,1.4,2.8,2.7,4.1,4.1c0.5,0.6,0.6,1.2,0.1,1.7c-1.4,1.4-2.8,2.9-4.3,4.3L34.3,29.3z"></path>
	<path
		d="M44.1,7.1c-0.3-3.3-2.1-5.6-5.2-6.7c-2.8-1-5.5-0.4-7.9,1.7c-1.6,1.7-2.4,3.5-2.4,5.7c0,1,0,2,0,3V13c0,0.4,0,0.9,0.4,1.2
			c0.3,0.3,0.8,0.3,1.2,0.3h9.6c0.7,0,1.4,0,2.1,0h0.8c1.3,0,1.4-1,1.4-1.3c0-0.6,0-1.1,0-1.7v-0.1C44.2,10.1,44.3,8.6,44.1,7.1z
			 M41.9,8H31c-0.1-2.1,0.8-3.7,2.5-4.8c1-0.6,1.9-0.9,2.9-0.9s2,0.3,2.9,0.9C41.1,4.3,41.9,5.9,41.9,8z M41.8,10.5v1.6H31.2v-1.6
			H41.8z"></path>
	<path
		d="M35.1,21.6c0.5-0.5,0.5-1.2,0.1-1.7c-0.2-0.2-0.5-0.3-0.8-0.3s-0.7,0.1-0.9,0.4c-0.3,0.2-0.5,0.5-0.7,0.7l-0.7,0.7
			c-0.3,0.3-0.5,0.5-0.8,0.8c-0.5,0.5-0.5,1.2,0,1.7c0.2,0.2,0.5,0.3,0.8,0.3s0.6-0.1,0.8-0.4C33.4,23.3,34.2,22.4,35.1,21.6z"></path>
	<path
		d="M36.2,22.7c-0.7,0.7-1.5,1.4-2.2,2.2c-0.5,0.5-0.6,1.2-0.1,1.7c0.2,0.2,0.5,0.3,0.8,0.3s0.6-0.1,0.9-0.4
			c0.3-0.2,0.5-0.5,0.8-0.8l0.7-0.7c0.3-0.3,0.5-0.5,0.8-0.8s0.4-0.6,0.4-1c0-0.3-0.1-0.6-0.4-0.8C37.4,22.2,36.7,22.2,36.2,22.7z"></path>
	<path
		d="M37.5,16.4L37.5,16.4c-1.6-1.6-3.7-1.6-5.3,0l-5.4,5.4l-1.4-1.4c-0.7-0.7-1.3-0.7-2,0L20.8,23c-3.4,3.4-6.8,6.8-10.1,10.1
			c-1.1,1.1-1.9,2.4-2.4,3.9c-1.4,4.4,0.4,9.3,4.5,11.6c1.5,0.9,3.3,1.3,5,1.3c2.6,0,5.1-1,7-2.9c3.2-3.1,6.4-6.4,9.3-9.3l3.4-3.4
			c0.7-0.7,0.7-1.4,0-2.1L35.9,31l1.2-1.2c1.4-1.4,2.8-2.8,4.2-4.2c1.6-1.6,1.6-3.7,0-5.3C40.1,19,38.8,17.7,37.5,16.4z M22.2,46.1
			c-2.2,1.6-4.7,2-7.3,1c-2.3-0.9-4-2.9-4.6-5.4c-0.5-2.2,0-4.4,1.4-6.2L22.2,46.1z M16.3,30.8l2.1-2l0,0l1.5-1.5
			c1.5-1.5,3-3,4.5-4.5l0,0l0,0c2.5,2.5,5,5.1,7.5,7.6l1.5,1.5c0.5,0.5,1.1,1.1,1.7,1.7l0,0c-1.3,1.3-2.6,2.6-3.9,3.9
			c-2.2,2-4.7,4.5-7.2,6.9L13.4,33.7C14.4,32.8,15.3,31.8,16.3,30.8z M34.3,29.3l-5.9-5.9l4.6-4.6l0.3-0.3c0.2-0.2,0.4-0.4,0.6-0.6
			c0.5-0.5,1.2-0.5,1.7,0c1.4,1.4,2.8,2.7,4.1,4.1c0.5,0.6,0.6,1.2,0.1,1.7c-1.4,1.4-2.8,2.9-4.3,4.3L34.3,29.3z"></path>
	<path
		d="M44.1,7.1c-0.3-3.3-2.1-5.6-5.2-6.7c-2.8-1-5.5-0.4-7.9,1.7c-1.6,1.7-2.4,3.5-2.4,5.7c0,1,0,2,0,3V13c0,0.4,0,0.9,0.4,1.2
			c0.3,0.3,0.8,0.3,1.2,0.3h9.6c0.7,0,1.4,0,2.1,0h0.8c1.3,0,1.4-1,1.4-1.3c0-0.6,0-1.1,0-1.7v-0.1C44.2,10.1,44.3,8.6,44.1,7.1z
			 M41.9,8H31c-0.1-2.1,0.8-3.7,2.5-4.8c1-0.6,1.9-0.9,2.9-0.9s2,0.3,2.9,0.9C41.1,4.3,41.9,5.9,41.9,8z M41.8,10.5v1.6H31.2v-1.6
			H41.8z"></path>
	<path
		d="M35.1,21.6c0.5-0.5,0.5-1.2,0.1-1.7c-0.2-0.2-0.5-0.3-0.8-0.3s-0.7,0.1-0.9,0.4c-0.3,0.2-0.5,0.5-0.7,0.7l-0.7,0.7
			c-0.3,0.3-0.5,0.5-0.8,0.8c-0.5,0.5-0.5,1.2,0,1.7c0.2,0.2,0.5,0.3,0.8,0.3s0.6-0.1,0.8-0.4C33.4,23.3,34.2,22.4,35.1,21.6z"></path>
	<path
		d="M36.2,22.7c-0.7,0.7-1.5,1.4-2.2,2.2c-0.5,0.5-0.6,1.2-0.1,1.7c0.2,0.2,0.5,0.3,0.8,0.3s0.6-0.1,0.9-0.4
			c0.3-0.2,0.5-0.5,0.8-0.8l0.7-0.7c0.3-0.3,0.5-0.5,0.8-0.8s0.4-0.6,0.4-1c0-0.3-0.1-0.6-0.4-0.8C37.4,22.2,36.7,22.2,36.2,22.7z"></path>
</svg>