<svg xmlns="http://www.w3.org/2000/svg" id="enclosures-svg">
    <path
        d="M50,21.2c0-0.3-0.1-0.7-0.2-1c-0.1-0.3-0.3-0.7-0.5-1v-0.1c-0.1-0.2-0.2-0.3-0.2-0.5l-0.9-1.9c-1.5-3.2-3-6.4-4.5-9.6
		c-0.4-0.8-1-1.2-1.8-1.2h-8.2C25,5.9,10.4,5.8,8.6,5.8c-1,0-1.7,0.4-2.2,1.4c-1.2,2.3-2.3,4.7-3.4,7l-0.1,0.2
		C2,16.3,1.1,18.1,0.3,20C0.1,20.3,0,20.8,0,21.3C0,25.5,0,37.9,0,40v2.3c0,0.2,0,0.3,0,0.5c0.1,0.9,0.7,1.5,1.6,1.5
		c0.2,0,0.3,0,0.5,0h0.1c2.2,0,12.8,0,23.2,0c10.5,0,20.8,0,22.4,0c1.5,0,2.2-0.7,2.2-2.2v-1.7C50,38.2,50,25.4,50,21.2z M4.6,19.2
		c0.9-2,3.7-7.9,4.6-9.9l0,0c2.4,0,8.9,0,10.4,0c-0.1,1.8-0.5,7.8-0.7,9.9c-2.2,0-9.4,0-13,0C5.4,19.2,4.9,19.2,4.6,19.2z
		 M19.3,19.6L19.3,19.6L19.3,19.6L19.3,19.6z M22.8,14.6c0.1-1.8,0.3-3.5,0.4-5.3c1.2,0,2.4,0,3.6,0c0.2,2.3,0.3,4.7,0.5,7
		c0.1,1,0.2,1.9,0.2,2.9h-5.1L22.8,14.6z M22.7,8.9L22.7,8.9L22.7,8.9L22.7,8.9z M30.3,9.4c1.8,0,8.1,0,10.5,0
		c1,2.2,3.6,7.9,4.6,9.9c-2.5,0-10.8,0-14.4,0C30.8,16.8,30.3,10.3,30.3,9.4z M46.4,22.8v17.9H3.5V22.8H46.4z"></path>
    <path
        d="M50,21.2c0-0.3-0.1-0.7-0.2-1c-0.1-0.3-0.3-0.7-0.5-1v-0.1c-0.1-0.2-0.2-0.3-0.2-0.5l-0.9-1.9c-1.5-3.2-3-6.4-4.5-9.6
		c-0.4-0.8-1-1.2-1.8-1.2h-8.2C25,5.9,10.4,5.8,8.6,5.8c-1,0-1.7,0.4-2.2,1.4c-1.2,2.3-2.3,4.7-3.4,7l-0.1,0.2
		C2,16.3,1.1,18.1,0.3,20C0.1,20.3,0,20.8,0,21.3C0,25.5,0,37.9,0,40v2.3c0,0.2,0,0.3,0,0.5c0.1,0.9,0.7,1.5,1.6,1.5
		c0.2,0,0.3,0,0.5,0h0.1c2.2,0,12.8,0,23.2,0c10.5,0,20.8,0,22.4,0c1.5,0,2.2-0.7,2.2-2.2v-1.7C50,38.2,50,25.4,50,21.2z M4.6,19.2
		c0.9-2,3.7-7.9,4.6-9.9l0,0c2.4,0,8.9,0,10.4,0c-0.1,1.8-0.5,7.8-0.7,9.9c-2.2,0-9.4,0-13,0C5.4,19.2,4.9,19.2,4.6,19.2z
		 M19.3,19.6L19.3,19.6L19.3,19.6L19.3,19.6z M22.8,14.6c0.1-1.8,0.3-3.5,0.4-5.3c1.2,0,2.4,0,3.6,0c0.2,2.3,0.3,4.7,0.5,7
		c0.1,1,0.2,1.9,0.2,2.9h-5.1L22.8,14.6z M22.7,8.9L22.7,8.9L22.7,8.9L22.7,8.9z M30.3,9.4c1.8,0,8.1,0,10.5,0
		c1,2.2,3.6,7.9,4.6,9.9c-2.5,0-10.8,0-14.4,0C30.8,16.8,30.3,10.3,30.3,9.4z M46.4,22.8v17.9H3.5V22.8H46.4z"></path>

</svg>