<svg xmlns="http://www.w3.org/2000/svg" id="fansCoolingAndHeatingSystems-svg">
    <path
        d="M25,7.1L25,7.1c-9.9,0-17.9,8-18,17.9c0,4.8,1.9,9.3,5.2,12.7c3.4,3.4,7.9,5.3,12.7,5.3c9.9,0,17.9-8,18-17.9
			C43,15.1,34.9,7.1,25,7.1z M23.1,26.9c-0.5-0.5-0.8-1.2-0.8-1.9c0-0.7,0.3-1.4,0.8-1.9s1.2-0.8,1.9-0.8c1.5,0,2.7,1.2,2.7,2.7
			c0,0.7-0.3,1.4-0.8,1.9s-1.2,0.8-1.9,0.8C24.3,27.7,23.6,27.4,23.1,26.9z M38.7,19.3c-0.9,1.9-2.7,2.8-4.2,3.3
			c-1.3,0.5-2.8,0.6-4.4,0.5l0,0c-0.7-1.6-1.8-2.6-3.4-3.2c1.2-4.1,1-7.3-0.8-10.2C27,9.8,28,10,29.1,10.3c4.3,1.3,7.6,3.9,9.7,8
			C38.9,18.6,38.9,18.9,38.7,19.3z M22.2,10c0.2,0,0.3,0,0.6,0.3l0.1,0.1c0.9,0.8,1.5,1.9,1.7,3.6c0.3,1.9,0.1,3.8-0.8,5.8v0.1
			c-1.1,0.3-2,0.8-2.7,1.6c-2.4-1.1-4.5-1.7-6.5-1.7c-1.4,0-2.8,0.3-4.1,0.9C12.3,14.9,16.2,11.3,22.2,10z M10.9,23.2
			c1.6-0.9,3.5-1.1,5.8-0.6c0.8,0.2,1.6,0.5,2.5,0.8c0.2,0.1,0.4,0.2,0.6,0.2c-0.3,1.5-0.2,2.8,0.6,4.1c-2.4,1.4-5.4,3.8-6.2,8.1
			c-3.1-3.1-4.6-6.9-4.5-11.3C9.7,24,10.2,23.7,10.9,23.2z M18,33.3c0.9-1.4,2.2-2.5,4.1-3.5c0.2-0.1,0.3-0.1,0.5,0
			c0.9,0.5,1.9,0.6,3.1,0.5c1.2,4.1,3.3,6.7,6.4,8.2c-5,2.5-10,2.4-15-0.4c-0.2-0.1-0.2-0.2-0.3-0.7v-0.2
			C16.6,35.6,17.4,34.3,18,33.3z M30.3,25.8c4.4,0,7.4-1.2,9.7-3.7c0.3,1.3,0.3,2.7,0.2,4.1c-0.3,3.8-1.9,7.2-4.7,9.9
			c-0.3,0.3-0.6,0.4-1,0.3l0,0c-1.5-0.2-2.7-1-4-2.6c-1-1.3-1.8-2.8-2.2-4.6C29.4,28.4,30,27.2,30.3,25.8z"></path>
    <path
        d="M37.3,0H12.7C5.7,0,0,5.7,0,12.7v24.7C0,44.3,5.7,50,12.7,50h24.7c7,0,12.7-5.7,12.7-12.7V12.7C50,5.7,44.3,0,37.3,0z
			 M47.2,12.7v24.7c0,5.5-4.4,9.9-9.9,9.9H12.7c-5.5,0-9.9-4.4-9.9-9.9V12.7c0-5.5,4.4-9.9,9.9-9.9h24.7
			C42.8,2.8,47.2,7.2,47.2,12.7z"></path>

    <path
        d="M25,7.1L25,7.1c-9.9,0-17.9,8-18,17.9c0,4.8,1.9,9.3,5.2,12.7c3.4,3.4,7.9,5.3,12.7,5.3c9.9,0,17.9-8,18-17.9
			C43,15.1,34.9,7.1,25,7.1z M23.1,26.9c-0.5-0.5-0.8-1.2-0.8-1.9c0-0.7,0.3-1.4,0.8-1.9s1.2-0.8,1.9-0.8c1.5,0,2.7,1.2,2.7,2.7
			c0,0.7-0.3,1.4-0.8,1.9s-1.2,0.8-1.9,0.8C24.3,27.7,23.6,27.4,23.1,26.9z M38.7,19.3c-0.9,1.9-2.7,2.8-4.2,3.3
			c-1.3,0.5-2.8,0.6-4.4,0.5l0,0c-0.7-1.6-1.8-2.6-3.4-3.2c1.2-4.1,1-7.3-0.8-10.2C27,9.8,28,10,29.1,10.3c4.3,1.3,7.6,3.9,9.7,8
			C38.9,18.6,38.9,18.9,38.7,19.3z M22.2,10c0.2,0,0.3,0,0.6,0.3l0.1,0.1c0.9,0.8,1.5,1.9,1.7,3.6c0.3,1.9,0.1,3.8-0.8,5.8v0.1
			c-1.1,0.3-2,0.8-2.7,1.6c-2.4-1.1-4.5-1.7-6.5-1.7c-1.4,0-2.8,0.3-4.1,0.9C12.3,14.9,16.2,11.3,22.2,10z M10.9,23.2
			c1.6-0.9,3.5-1.1,5.8-0.6c0.8,0.2,1.6,0.5,2.5,0.8c0.2,0.1,0.4,0.2,0.6,0.2c-0.3,1.5-0.2,2.8,0.6,4.1c-2.4,1.4-5.4,3.8-6.2,8.1
			c-3.1-3.1-4.6-6.9-4.5-11.3C9.7,24,10.2,23.7,10.9,23.2z M18,33.3c0.9-1.4,2.2-2.5,4.1-3.5c0.2-0.1,0.3-0.1,0.5,0
			c0.9,0.5,1.9,0.6,3.1,0.5c1.2,4.1,3.3,6.7,6.4,8.2c-5,2.5-10,2.4-15-0.4c-0.2-0.1-0.2-0.2-0.3-0.7v-0.2
			C16.6,35.6,17.4,34.3,18,33.3z M30.3,25.8c4.4,0,7.4-1.2,9.7-3.7c0.3,1.3,0.3,2.7,0.2,4.1c-0.3,3.8-1.9,7.2-4.7,9.9
			c-0.3,0.3-0.6,0.4-1,0.3l0,0c-1.5-0.2-2.7-1-4-2.6c-1-1.3-1.8-2.8-2.2-4.6C29.4,28.4,30,27.2,30.3,25.8z"></path>
    <path
        d="M37.3,0H12.7C5.7,0,0,5.7,0,12.7v24.7C0,44.3,5.7,50,12.7,50h24.7c7,0,12.7-5.7,12.7-12.7V12.7C50,5.7,44.3,0,37.3,0z
			 M47.2,12.7v24.7c0,5.5-4.4,9.9-9.9,9.9H12.7c-5.5,0-9.9-4.4-9.9-9.9V12.7c0-5.5,4.4-9.9,9.9-9.9h24.7
			C42.8,2.8,47.2,7.2,47.2,12.7z"></path>

</svg>