<svg xmlns="http://www.w3.org/2000/svg" id="roboticsAndPrototyping-svg">
    <path
        d="M50,34.4c0-0.8-0.2-1.4-0.8-2c-0.8-0.9-1.6-1.8-2.4-2.8c0.5-0.4,0.6-0.8,0.6-1.3c0-1,0-1.9,0-2.9c0-0.9-0.4-1.3-1.4-1.3
		c-0.4,0-0.7,0-1.1,0c0-1.5,0-2.8,0-4.2c0-0.1,0.1-0.3,0.2-0.4c0.4-0.6,0.5-1.3,0.5-2c0-0.1,0-0.1,0-0.2c0-2-1.5-3.6-3.4-4
		c-1.7-1.6-3.3-3.2-5-4.8c0,0-0.1-0.1-0.1-0.2c0.1-0.4,0.1-0.7,0.1-1.1c0-3.3-2.8-5.9-6.2-5.9c-0.4,0-0.8,0-1.2,0.1
		c-0.2-0.2-0.4-0.3-0.6-0.6c-0.1-0.1-0.3-0.2-0.4-0.4c-0.7-0.7-1.3-0.7-2.1,0C22.5,4,18.4,7.6,14.2,11.3c-0.5,0.4-1,0.8-1.8,0.9
		c-0.4,0-0.7,0.2-1.1,0.4c-1.8,0.9-3.1,2.2-3,4.3c0,0.1,0,0.2-0.1,0.3c-1.1,0-2.1,0-3.2,0c-0.9,0-1.4,0.4-1.4,1.2
		c-0.2,2.7-0.3,5.5-0.5,8.2c-0.1,2-0.3,4.1-0.4,6.2c-0.6,0-1.1,0-1.6,0c-1,0-1.4,0.4-1.4,1.4c0,4.8,0,9.6,0,14.4
		c0,1,0.4,1.4,1.4,1.4c8.6,0,17.1,0,25.7,0c1,0,1.4-0.4,1.4-1.4c0-4.8,0-9.6,0-14.4c0-1-0.4-1.4-1.4-1.4c-2.6,0-5.1,0-7.7,0
		c-0.3,0-0.5-0.1-0.6-0.4c-0.7-1.7-1.4-3.4-2.1-5.1c-0.3-0.7-0.6-1.4-0.9-2.2c2.2-0.6,3.7-2.5,3.9-4.7c1.4-1.5,2.8-3,4.2-4.4
		c1.2-1.3,2.4-2.5,3.6-3.8c0.1,0,0.2,0,0.2,0.1c1.1,0.8,2.4,1.1,3.8,1c0.2,0,0.4,0.1,0.6,0.3c1.7,1.6,3.4,3.2,5.1,4.9
		c0.3,0.9,0.9,1.7,1.8,2.3c0.1,0.1,0.1,0.1,0.1,0.2c0,1,0,2,0,3.1c-0.4,0-0.8,0-1.1,0c-0.9,0-1.3,0.4-1.3,1.3c0,1,0,1.9,0,2.9
		c0,0.5,0.1,1,0.6,1.4c-0.9,1.1-1.8,2.2-2.7,3.3c-0.2,0.2-0.4,0.6-0.4,0.8c0,1.3,0,2.5,0,3.8c0,0.7,0.5,1.1,1.2,1.1
		c1.2,0,2.3,0,3.5,0c0.7,0,1.1-0.4,1.2-1.1c0-0.4,0-0.8,0-1.2c0-0.2,0.1-0.4,0.2-0.6c0.4-0.6,0.8-1.1,1.3-1.7c0.3-0.3,0.7-0.3,1,0
		c0.2,0.2,0.4,0.5,0.6,0.7c0.7,0.7,1.1,1.5,1,2.6c-0.1,0.7,0.5,1.2,1.2,1.2c1.1,0,2.2,0,3.2,0s1.4-0.4,1.4-1.3
		C50,36.4,49.9,35.4,50,34.4z M42.6,24.7c0,0.1,0,0.2,0,0.4c-0.3,0-0.6,0-1,0c0-1.2,0-2.4,0-3.6c0.3,0,0.6-0.1,1-0.1
		C42.6,22.6,42.6,23.7,42.6,24.7z M41.5,15.9c1,0,1.8,0.7,1.8,1.7c0,0.9-0.8,1.7-1.8,1.7s-1.7-0.8-1.7-1.7
		C39.7,16.6,40.5,15.9,41.5,15.9z M39.2,13.8c-0.7,0.4-1.3,1-1.7,1.7c-1.2-1.1-2.3-2.2-3.3-3.1c0.7-0.4,1.3-0.9,1.8-1.6
		C37.1,11.7,38.1,12.7,39.2,13.8z M27.7,7c0.4-1.5,1.7-2.6,3.4-2.6c1.4,0,2.5,0.7,3.1,1.8c0.1,0.3,0.2,0.7,0.2,1.1
		c0,1.8-1.5,3.2-3.4,3.2s-3.4-1.4-3.4-3.2C27.7,7.2,27.7,7.1,27.7,7z M11.7,20.2v-3c0-1.4,1.2-2.5,2.6-2.5c0.2,0,0.3,0,0.5,0
		c0.6,0.2,1.2,0.5,1.6,1c0.3,0.3,0.4,0.8,0.5,1.2c0,0.1,0,0.1,0,0.2v2.8c-0.2,1.2-1,2-2.3,2.3c-0.7,0.1-1.3,0.1-1.9-0.1
		C12.1,21.8,11.7,21.1,11.7,20.2z M26.2,35.2c0,4.2,0,8.3,0,12.5c-7.9,0-15.9,0-23.8,0c0-4.2,0-8.3,0-12.5
		C10.3,35.2,18.3,35.2,26.2,35.2z M16.5,32.8c-3.7,0-7.4,0-11.1,0c0.3-4.4,0.6-8.9,0.9-13.3c0.9,0,1.8,0,2.6,0v0.7
		c0,2.6,2.1,4.8,4.8,5.1c0.9,2.3,1.8,4.7,2.6,7C16.3,32.5,16.4,32.7,16.5,32.8z M19.7,17.1c-0.1-2-1.3-3.7-3.2-4.6
		c2.9-2.6,5.9-5.1,8.8-7.7c-0.3,0.7-0.5,1.5-0.5,2.4c0,1.2,0.4,2.4,1.1,3.3C23.9,12.7,21.8,14.9,19.7,17.1z M39.1,26.3
		c2,0,3.9,0,5.9,0c0,0.4,0,0.8,0,1.2c-2,0-3.9,0-5.9,0C39.1,27.1,39.1,26.7,39.1,26.3z M47.6,36.4c-0.4,0-0.8,0-1.2,0
		c0.2-1.2-0.7-1.8-1.3-2.6c-0.2-0.3-0.5-0.5-0.6-0.8c-0.6-1.1-1.5-1.3-2.7-1.2c-1,0-1.7,0.3-2.2,1.1c-0.3,0.5-0.7,1-1.1,1.4
		c-0.5,0.6-1.1,1.2-0.8,2.2c-0.4,0-0.8,0-1.2,0c0-0.7,0-1.4,0-2.2c0-0.1,0.1-0.3,0.2-0.4c1-1.3,2.1-2.5,3.2-3.7
		c0.1-0.1,0.4-0.3,0.6-0.3c1,0,2.1,0,3.1,0c0.2,0,0.5,0.1,0.6,0.3c1.1,1.2,2.1,2.5,3.2,3.7c0.1,0.2,0.2,0.4,0.2,0.6
		C47.6,35.1,47.6,35.7,47.6,36.4z"></path>
    <path
        d="M50,34.4c0-0.8-0.2-1.4-0.8-2c-0.8-0.9-1.6-1.8-2.4-2.8c0.5-0.4,0.6-0.8,0.6-1.3c0-1,0-1.9,0-2.9c0-0.9-0.4-1.3-1.4-1.3
		c-0.4,0-0.7,0-1.1,0c0-1.5,0-2.8,0-4.2c0-0.1,0.1-0.3,0.2-0.4c0.4-0.6,0.5-1.3,0.5-2c0-0.1,0-0.1,0-0.2c0-2-1.5-3.6-3.4-4
		c-1.7-1.6-3.3-3.2-5-4.8c0,0-0.1-0.1-0.1-0.2c0.1-0.4,0.1-0.7,0.1-1.1c0-3.3-2.8-5.9-6.2-5.9c-0.4,0-0.8,0-1.2,0.1
		c-0.2-0.2-0.4-0.3-0.6-0.6c-0.1-0.1-0.3-0.2-0.4-0.4c-0.7-0.7-1.3-0.7-2.1,0C22.5,4,18.4,7.6,14.2,11.3c-0.5,0.4-1,0.8-1.8,0.9
		c-0.4,0-0.7,0.2-1.1,0.4c-1.8,0.9-3.1,2.2-3,4.3c0,0.1,0,0.2-0.1,0.3c-1.1,0-2.1,0-3.2,0c-0.9,0-1.4,0.4-1.4,1.2
		c-0.2,2.7-0.3,5.5-0.5,8.2c-0.1,2-0.3,4.1-0.4,6.2c-0.6,0-1.1,0-1.6,0c-1,0-1.4,0.4-1.4,1.4c0,4.8,0,9.6,0,14.4
		c0,1,0.4,1.4,1.4,1.4c8.6,0,17.1,0,25.7,0c1,0,1.4-0.4,1.4-1.4c0-4.8,0-9.6,0-14.4c0-1-0.4-1.4-1.4-1.4c-2.6,0-5.1,0-7.7,0
		c-0.3,0-0.5-0.1-0.6-0.4c-0.7-1.7-1.4-3.4-2.1-5.1c-0.3-0.7-0.6-1.4-0.9-2.2c2.2-0.6,3.7-2.5,3.9-4.7c1.4-1.5,2.8-3,4.2-4.4
		c1.2-1.3,2.4-2.5,3.6-3.8c0.1,0,0.2,0,0.2,0.1c1.1,0.8,2.4,1.1,3.8,1c0.2,0,0.4,0.1,0.6,0.3c1.7,1.6,3.4,3.2,5.1,4.9
		c0.3,0.9,0.9,1.7,1.8,2.3c0.1,0.1,0.1,0.1,0.1,0.2c0,1,0,2,0,3.1c-0.4,0-0.8,0-1.1,0c-0.9,0-1.3,0.4-1.3,1.3c0,1,0,1.9,0,2.9
		c0,0.5,0.1,1,0.6,1.4c-0.9,1.1-1.8,2.2-2.7,3.3c-0.2,0.2-0.4,0.6-0.4,0.8c0,1.3,0,2.5,0,3.8c0,0.7,0.5,1.1,1.2,1.1
		c1.2,0,2.3,0,3.5,0c0.7,0,1.1-0.4,1.2-1.1c0-0.4,0-0.8,0-1.2c0-0.2,0.1-0.4,0.2-0.6c0.4-0.6,0.8-1.1,1.3-1.7c0.3-0.3,0.7-0.3,1,0
		c0.2,0.2,0.4,0.5,0.6,0.7c0.7,0.7,1.1,1.5,1,2.6c-0.1,0.7,0.5,1.2,1.2,1.2c1.1,0,2.2,0,3.2,0s1.4-0.4,1.4-1.3
		C50,36.4,49.9,35.4,50,34.4z M42.6,24.7c0,0.1,0,0.2,0,0.4c-0.3,0-0.6,0-1,0c0-1.2,0-2.4,0-3.6c0.3,0,0.6-0.1,1-0.1
		C42.6,22.6,42.6,23.7,42.6,24.7z M41.5,15.9c1,0,1.8,0.7,1.8,1.7c0,0.9-0.8,1.7-1.8,1.7s-1.7-0.8-1.7-1.7
		C39.7,16.6,40.5,15.9,41.5,15.9z M39.2,13.8c-0.7,0.4-1.3,1-1.7,1.7c-1.2-1.1-2.3-2.2-3.3-3.1c0.7-0.4,1.3-0.9,1.8-1.6
		C37.1,11.7,38.1,12.7,39.2,13.8z M27.7,7c0.4-1.5,1.7-2.6,3.4-2.6c1.4,0,2.5,0.7,3.1,1.8c0.1,0.3,0.2,0.7,0.2,1.1
		c0,1.8-1.5,3.2-3.4,3.2s-3.4-1.4-3.4-3.2C27.7,7.2,27.7,7.1,27.7,7z M11.7,20.2v-3c0-1.4,1.2-2.5,2.6-2.5c0.2,0,0.3,0,0.5,0
		c0.6,0.2,1.2,0.5,1.6,1c0.3,0.3,0.4,0.8,0.5,1.2c0,0.1,0,0.1,0,0.2v2.8c-0.2,1.2-1,2-2.3,2.3c-0.7,0.1-1.3,0.1-1.9-0.1
		C12.1,21.8,11.7,21.1,11.7,20.2z M26.2,35.2c0,4.2,0,8.3,0,12.5c-7.9,0-15.9,0-23.8,0c0-4.2,0-8.3,0-12.5
		C10.3,35.2,18.3,35.2,26.2,35.2z M16.5,32.8c-3.7,0-7.4,0-11.1,0c0.3-4.4,0.6-8.9,0.9-13.3c0.9,0,1.8,0,2.6,0v0.7
		c0,2.6,2.1,4.8,4.8,5.1c0.9,2.3,1.8,4.7,2.6,7C16.3,32.5,16.4,32.7,16.5,32.8z M19.7,17.1c-0.1-2-1.3-3.7-3.2-4.6
		c2.9-2.6,5.9-5.1,8.8-7.7c-0.3,0.7-0.5,1.5-0.5,2.4c0,1.2,0.4,2.4,1.1,3.3C23.9,12.7,21.8,14.9,19.7,17.1z M39.1,26.3
		c2,0,3.9,0,5.9,0c0,0.4,0,0.8,0,1.2c-2,0-3.9,0-5.9,0C39.1,27.1,39.1,26.7,39.1,26.3z M47.6,36.4c-0.4,0-0.8,0-1.2,0
		c0.2-1.2-0.7-1.8-1.3-2.6c-0.2-0.3-0.5-0.5-0.6-0.8c-0.6-1.1-1.5-1.3-2.7-1.2c-1,0-1.7,0.3-2.2,1.1c-0.3,0.5-0.7,1-1.1,1.4
		c-0.5,0.6-1.1,1.2-0.8,2.2c-0.4,0-0.8,0-1.2,0c0-0.7,0-1.4,0-2.2c0-0.1,0.1-0.3,0.2-0.4c1-1.3,2.1-2.5,3.2-3.7
		c0.1-0.1,0.4-0.3,0.6-0.3c1,0,2.1,0,3.1,0c0.2,0,0.5,0.1,0.6,0.3c1.1,1.2,2.1,2.5,3.2,3.7c0.1,0.2,0.2,0.4,0.2,0.6
		C47.6,35.1,47.6,35.7,47.6,36.4z"></path>
</svg>