<svg xmlns="http://www.w3.org/2000/svg" id="semiconductors-svg">
		<path d="M4.1,20.2L24,30.3c0.3,0.2,0.7,0.3,1.1,0.3s0.8-0.1,1.1-0.3l19.9-10.2c0.3-0.2,0.5-0.5,0.5-0.8c0-0.4-0.2-0.7-0.6-0.8
			L25.4,9.9c-0.4-0.2-0.8-0.2-1.2,0L4.1,18.5c-0.3,0.1-0.5,0.4-0.5,0.8C3.5,19.7,3.7,20,4.1,20.2z M8.7,19.5l16.1-6.9l16.6,6.9
			l-16.3,8.3L8.7,19.5z"></path>
		<path d="M8.6,24.6c-0.1-0.5-0.6-1-1.2-0.9l0,0C5.4,24,4,25.5,4,27.3c0,0.1,0,0.1,0,5c0,0.7,0.5,1.2,1.2,1.2s1.2-0.5,1.2-1.2
			c0-4,0-4.7,0-4.9c0.1-0.8,1-1.4,1.5-1.5C8.5,25.7,8.7,25.1,8.6,24.6z"></path>
		<path d="M12.8,26.7c-0.1-0.5-0.6-1-1.2-0.9l0,0c-2,0.3-3.4,1.8-3.4,3.6c0,0.1,0,0.1,0,5c0,0.7,0.5,1.2,1.2,1.2s1.2-0.5,1.2-1.2
			c0-4,0-4.7,0-4.9c0.1-0.8,1-1.4,1.5-1.5C12.8,27.8,12.9,27.2,12.8,26.7z"></path>
		<path d="M17,29c-0.1-0.5-0.6-1-1.2-0.9l0,0c-2,0.3-3.4,1.8-3.4,3.6c0,0.1,0,0.1,0,5c0,0.7,0.5,1.2,1.2,1.2s1.2-0.5,1.2-1.2
			c0-4,0-4.7,0-4.9c0.1-0.8,1-1.4,1.5-1.5C17,30.1,17.1,29.4,17,29z"></path>
		<path d="M21.6,31.4c-0.1-0.5-0.6-1-1.2-0.9l0,0c-2,0.3-3.4,1.8-3.4,3.6c0,0.1,0,0.1,0,5c0,0.7,0.5,1.2,1.2,1.2s1.2-0.5,1.2-1.2
			c0-4,0-4.7,0-4.9c0.1-0.8,1-1.4,1.5-1.5C21.6,32.5,21.7,31.8,21.6,31.4z"></path>
		<path d="M26.9,33.7c-1.4,1.3-2.6,0.8-3.6,0l-0.1-0.1c-0.5-0.4-1.3-0.2-1.6,0.3c-0.4,0.5-0.2,1.2,0.3,1.6l0.1,0.1
			c1.1,0.9,2.3,1.3,3.4,1.3c1.2,0,2.3-0.5,3.3-1.5c0.5-0.4,0.5-1.2,0-1.6C28.1,33.2,27.3,33.2,26.9,33.7z"></path>
		<path d="M4.7,22.9c-0.1-0.5-0.6-1-1.2-0.9l0,0c-2,0.3-3.4,1.8-3.4,3.6c0,0.1,0,0.1,0,5c0,0.7,0.5,1.2,1.2,1.2s1.2-0.5,1.2-1.2
			c0-4,0-4.7,0-4.9c0.1-0.8,1-1.4,1.5-1.5C4.6,24,4.8,23.4,4.7,22.9z"></path>
		<path d="M42.6,23.7L42.6,23.7c-0.6-0.1-1.1,0.4-1.2,0.9c-0.1,0.5,0.1,1.1,0.8,1.3c0.4,0.1,1.4,0.7,1.5,1.5c0,0.2,0,0.9,0,4.9
			c0,0.7,0.5,1.2,1.2,1.2s1.2-0.5,1.2-1.2c0-4.9,0-4.9,0-4.9C46.1,25.5,44.7,23.9,42.6,23.7z"></path>
		<path d="M38.4,25.8L38.4,25.8c-0.6-0.1-1.1,0.4-1.2,0.9c-0.1,0.5,0.1,1.1,0.8,1.3c0.4,0.1,1.4,0.7,1.5,1.5c0,0.2,0,0.9,0,4.9
			c0,0.7,0.5,1.2,1.2,1.2s1.2-0.5,1.2-1.2c0-4.9,0-4.9,0-4.9C41.8,27.6,40.4,26,38.4,25.8z"></path>
		<path d="M34.2,28.1L34.2,28.1C33.6,28,33.1,28.5,33,29s0.1,1.1,0.8,1.3c0.4,0.1,1.4,0.7,1.5,1.5c0,0.2,0,0.9,0,4.9
			c0,0.7,0.5,1.2,1.2,1.2s1.2-0.5,1.2-1.2c0-4.9,0-4.9,0-4.9C37.6,29.8,36.2,28.3,34.2,28.1z"></path>
		<path d="M29.6,30.4L29.6,30.4c-0.6-0.1-1.1,0.4-1.2,0.9s0.1,1.1,0.8,1.3c0.4,0.1,1.4,0.7,1.5,1.5c0,0.2,0,0.9,0,4.9
			c0,0.7,0.5,1.2,1.2,1.2c0.7,0,1.2-0.5,1.2-1.2c0-4.9,0-4.9,0-4.9C33.1,32.2,31.6,30.7,29.6,30.4z"></path>
		<path d="M50,25.7c0-1.9-1.4-3.4-3.4-3.7l0,0c-0.6-0.1-1.1,0.4-1.2,0.9c-0.1,0.5,0.1,1.1,0.8,1.3c0.4,0.1,1.4,0.7,1.5,1.5
			c0,0.2,0,0.9,0,4.9c0,0.7,0.5,1.2,1.2,1.2s1.2-0.5,1.2-1.2C50,25.7,50,25.7,50,25.7z"></path>
		<path d="M4.1,20.2L24,30.3c0.3,0.2,0.7,0.3,1.1,0.3s0.8-0.1,1.1-0.3l19.9-10.2c0.3-0.2,0.5-0.5,0.5-0.8c0-0.4-0.2-0.7-0.6-0.8
			L25.4,9.9c-0.4-0.2-0.8-0.2-1.2,0L4.1,18.5c-0.3,0.1-0.5,0.4-0.5,0.8C3.5,19.7,3.7,20,4.1,20.2z M8.7,19.5l16.1-6.9l16.6,6.9
			l-16.3,8.3L8.7,19.5z"></path>
		<path d="M8.6,24.6c-0.1-0.5-0.6-1-1.2-0.9l0,0C5.4,24,4,25.5,4,27.3c0,0.1,0,0.1,0,5c0,0.7,0.5,1.2,1.2,1.2s1.2-0.5,1.2-1.2
			c0-4,0-4.7,0-4.9c0.1-0.8,1-1.4,1.5-1.5C8.5,25.7,8.7,25.1,8.6,24.6z"></path>
		<path d="M12.8,26.7c-0.1-0.5-0.6-1-1.2-0.9l0,0c-2,0.3-3.4,1.8-3.4,3.6c0,0.1,0,0.1,0,5c0,0.7,0.5,1.2,1.2,1.2s1.2-0.5,1.2-1.2
			c0-4,0-4.7,0-4.9c0.1-0.8,1-1.4,1.5-1.5C12.8,27.8,12.9,27.2,12.8,26.7z"></path>
		<path d="M17,29c-0.1-0.5-0.6-1-1.2-0.9l0,0c-2,0.3-3.4,1.8-3.4,3.6c0,0.1,0,0.1,0,5c0,0.7,0.5,1.2,1.2,1.2s1.2-0.5,1.2-1.2
			c0-4,0-4.7,0-4.9c0.1-0.8,1-1.4,1.5-1.5C17,30.1,17.1,29.4,17,29z"></path>
		<path d="M21.6,31.4c-0.1-0.5-0.6-1-1.2-0.9l0,0c-2,0.3-3.4,1.8-3.4,3.6c0,0.1,0,0.1,0,5c0,0.7,0.5,1.2,1.2,1.2s1.2-0.5,1.2-1.2
			c0-4,0-4.7,0-4.9c0.1-0.8,1-1.4,1.5-1.5C21.6,32.5,21.7,31.8,21.6,31.4z"></path>
		<path d="M26.9,33.7c-1.4,1.3-2.6,0.8-3.6,0l-0.1-0.1c-0.5-0.4-1.3-0.2-1.6,0.3c-0.4,0.5-0.2,1.2,0.3,1.6l0.1,0.1
			c1.1,0.9,2.3,1.3,3.4,1.3c1.2,0,2.3-0.5,3.3-1.5c0.5-0.4,0.5-1.2,0-1.6C28.1,33.2,27.3,33.2,26.9,33.7z"></path>
		<path d="M4.7,22.9c-0.1-0.5-0.6-1-1.2-0.9l0,0c-2,0.3-3.4,1.8-3.4,3.6c0,0.1,0,0.1,0,5c0,0.7,0.5,1.2,1.2,1.2s1.2-0.5,1.2-1.2
			c0-4,0-4.7,0-4.9c0.1-0.8,1-1.4,1.5-1.5C4.6,24,4.8,23.4,4.7,22.9z"></path>
		<path d="M42.6,23.7L42.6,23.7c-0.6-0.1-1.1,0.4-1.2,0.9c-0.1,0.5,0.1,1.1,0.8,1.3c0.4,0.1,1.4,0.7,1.5,1.5c0,0.2,0,0.9,0,4.9
			c0,0.7,0.5,1.2,1.2,1.2s1.2-0.5,1.2-1.2c0-4.9,0-4.9,0-4.9C46.1,25.5,44.7,23.9,42.6,23.7z"></path>
		<path d="M38.4,25.8L38.4,25.8c-0.6-0.1-1.1,0.4-1.2,0.9c-0.1,0.5,0.1,1.1,0.8,1.3c0.4,0.1,1.4,0.7,1.5,1.5c0,0.2,0,0.9,0,4.9
			c0,0.7,0.5,1.2,1.2,1.2s1.2-0.5,1.2-1.2c0-4.9,0-4.9,0-4.9C41.8,27.6,40.4,26,38.4,25.8z"></path>
		<path d="M34.2,28.1L34.2,28.1C33.6,28,33.1,28.5,33,29s0.1,1.1,0.8,1.3c0.4,0.1,1.4,0.7,1.5,1.5c0,0.2,0,0.9,0,4.9
			c0,0.7,0.5,1.2,1.2,1.2s1.2-0.5,1.2-1.2c0-4.9,0-4.9,0-4.9C37.6,29.8,36.2,28.3,34.2,28.1z"></path>
		<path d="M29.6,30.4L29.6,30.4c-0.6-0.1-1.1,0.4-1.2,0.9s0.1,1.1,0.8,1.3c0.4,0.1,1.4,0.7,1.5,1.5c0,0.2,0,0.9,0,4.9
			c0,0.7,0.5,1.2,1.2,1.2c0.7,0,1.2-0.5,1.2-1.2c0-4.9,0-4.9,0-4.9C33.1,32.2,31.6,30.7,29.6,30.4z"></path>
		<path d="M50,25.7c0-1.9-1.4-3.4-3.4-3.7l0,0c-0.6-0.1-1.1,0.4-1.2,0.9c-0.1,0.5,0.1,1.1,0.8,1.3c0.4,0.1,1.4,0.7,1.5,1.5
			c0,0.2,0,0.9,0,4.9c0,0.7,0.5,1.2,1.2,1.2s1.2-0.5,1.2-1.2C50,25.7,50,25.7,50,25.7z"></path>
</svg>