<svg xmlns="http://www.w3.org/2000/svg" id="switchesAndIndicators-svg">
    <path
        d="M37.7,0H12.3C9.9,0,8.1,1.9,8.1,4.2v41.6c0,2.3,1.9,4.2,4.2,4.2h25.5c2.3,0,4.2-1.9,4.2-4.2V4.2C41.9,1.9,40.1,0,37.7,0z
			 M38.9,4.2v41.6c0,0.6-0.5,1.1-1.1,1.1H12.3c-0.6,0-1.1-0.5-1.1-1.1V4.2c0-0.6,0.5-1.1,1.1-1.1h25.5C38.4,3.1,38.9,3.6,38.9,4.2z"></path>
    <path
        d="M24.7,8.5c-4.1,0-7.4,3.3-7.4,7.4s3.3,7.4,7.4,7.4s7.4-3.3,7.4-7.4S28.8,8.5,24.7,8.5z M29.1,15.9c0,2.4-1.9,4.3-4.3,4.3
			s-4.3-1.9-4.3-4.3s1.9-4.3,4.3-4.3S29.1,13.6,29.1,15.9z"></path>
    <path
        d="M24.8,27.6h-0.3c-0.8,0-1.5,0.7-1.5,1.5v12.5c0,0.8,0.7,1.5,1.5,1.5h0.3c0.8,0,1.5-0.7,1.5-1.5V29
			C26.3,28.2,25.7,27.6,24.8,27.6z"></path>
    <path
        d="M37.7,0H12.3C9.9,0,8.1,1.9,8.1,4.2v41.6c0,2.3,1.9,4.2,4.2,4.2h25.5c2.3,0,4.2-1.9,4.2-4.2V4.2C41.9,1.9,40.1,0,37.7,0z
			 M38.9,4.2v41.6c0,0.6-0.5,1.1-1.1,1.1H12.3c-0.6,0-1.1-0.5-1.1-1.1V4.2c0-0.6,0.5-1.1,1.1-1.1h25.5C38.4,3.1,38.9,3.6,38.9,4.2z"></path>
    <path
        d="M24.7,8.5c-4.1,0-7.4,3.3-7.4,7.4s3.3,7.4,7.4,7.4s7.4-3.3,7.4-7.4S28.8,8.5,24.7,8.5z M29.1,15.9c0,2.4-1.9,4.3-4.3,4.3
			s-4.3-1.9-4.3-4.3s1.9-4.3,4.3-4.3S29.1,13.6,29.1,15.9z"></path>
    <path
        d="M24.8,27.6h-0.3c-0.8,0-1.5,0.7-1.5,1.5v12.5c0,0.8,0.7,1.5,1.5,1.5h0.3c0.8,0,1.5-0.7,1.5-1.5V29
			C26.3,28.2,25.7,27.6,24.8,27.6z"></path>

</svg>