<svg xmlns="http://www.w3.org/2000/svg" id="transformersAndFerriteCores-svg">
    <path
        d="M7.6,44c-2,0-4.1,0-6.1,0c-0.6,0-1-0.2-1.3-0.7s-0.3-1,0-1.5C0.6,41.2,1,41,1.6,41c3.9,0,7.7,0,11.6,0
					c0.5,0,0.9-0.1,1.3-0.4c0.6-0.5,0.8-1.2,0.6-1.9c-0.3-1.2-0.6-2.3-0.7-3.5c-0.2-2,0-4,0.6-6c0.5-1.5,0.8-2.9,0.7-4.5
					c0-1.3-0.3-2.5-0.7-3.7c-1-3.2-1-6.3,0-9.5c0.2-0.5,0.2-1.1-0.1-1.6c-0.4-0.7-1-1-1.8-1c-2.6,0-5.3,0-7.9,0C4,9,2.7,9,1.5,9
					C0.8,9,0.2,8.5,0.1,7.9c-0.2-0.6,0.1-1.3,0.6-1.7C0.9,6.1,1.2,6,1.5,6c4,0,8,0,12,0c3.2,0,5.4,3.1,4.5,6.2
					c-0.4,1.3-0.7,2.7-0.7,4.1c0,1.3,0.2,2.5,0.6,3.7c1.1,3.3,1.1,6.7,0,10c-0.8,2.6-0.8,5.1,0,7.7c0.9,2.7-0.6,5.5-3.3,6.2
					c-0.4,0.1-0.8,0.1-1.2,0.2C11.5,44,9.5,44,7.6,44z"></path>
    <path
        d="M42.3,44c-1.9,0-3.8,0-5.7,0c-3.2,0-5.5-3.1-4.6-6.2c0.4-1.4,0.7-2.9,0.7-4.4c0-1.3-0.3-2.6-0.7-3.9c-1-3.1-1-6.2,0-9.2
					c0.9-2.7,0.9-5.4,0.1-8c-1-3.2,1.3-6.3,4.6-6.3c3.9,0,7.8,0,11.8,0C49.3,6,50,6.7,50,7.5C50,8.4,49.3,9,48.4,9
					C44.6,9,40.8,9,37,9c-0.3,0-0.6,0-0.8,0.1c-1,0.3-1.5,1.3-1.2,2.3c0.4,1.2,0.7,2.4,0.8,3.7c0.2,2.1-0.1,4.1-0.8,6.1
					c-0.9,2.6-0.8,5.2,0,7.8c1,3.2,1.1,6.3,0,9.5c-0.2,0.7-0.2,1.3,0.3,1.9c0.4,0.4,0.8,0.6,1.4,0.6c1.1,0,2.2,0,3.3,0
					c2.8,0,5.7,0,8.5,0c0.7,0,1.3,0.4,1.5,1s0,1.3-0.5,1.7c-0.3,0.2-0.7,0.3-1,0.3C46.4,44,44.4,44,42.3,44z"></path>
    <path
        d="M29.2,25c0,5.7,0,11.5,0,17.2c0,0.3,0,0.6-0.2,0.9c-0.3,0.6-0.9,0.9-1.6,0.8c-0.6-0.1-1.1-0.6-1.2-1.2
					c0-0.2,0-0.3,0-0.5c0-11.5,0-23,0-34.5c0-0.5,0.1-1,0.5-1.3c0.5-0.4,1-0.5,1.6-0.3s0.9,0.7,0.9,1.3c0,0.1,0,0.3,0,0.4
					C29.2,13.6,29.2,19.3,29.2,25z"></path>
    <path
        d="M23.8,25c0,5.7,0,11.5,0,17.2c0,0.2,0,0.5-0.1,0.7c-0.2,0.7-0.8,1.1-1.6,1c-0.7-0.1-1.2-0.7-1.3-1.4c0-0.1,0-0.2,0-0.2
					c0-11.6,0-23.1,0-34.7c0-0.9,0.4-1.4,1.2-1.6c0.8-0.2,1.7,0.4,1.8,1.3c0,0.2,0,0.4,0,0.6C23.8,13.6,23.8,19.3,23.8,25z"></path>

    <path
        d="M7.6,44c-2,0-4.1,0-6.1,0c-0.6,0-1-0.2-1.3-0.7s-0.3-1,0-1.5C0.6,41.2,1,41,1.6,41c3.9,0,7.7,0,11.6,0
					c0.5,0,0.9-0.1,1.3-0.4c0.6-0.5,0.8-1.2,0.6-1.9c-0.3-1.2-0.6-2.3-0.7-3.5c-0.2-2,0-4,0.6-6c0.5-1.5,0.8-2.9,0.7-4.5
					c0-1.3-0.3-2.5-0.7-3.7c-1-3.2-1-6.3,0-9.5c0.2-0.5,0.2-1.1-0.1-1.6c-0.4-0.7-1-1-1.8-1c-2.6,0-5.3,0-7.9,0C4,9,2.7,9,1.5,9
					C0.8,9,0.2,8.5,0.1,7.9c-0.2-0.6,0.1-1.3,0.6-1.7C0.9,6.1,1.2,6,1.5,6c4,0,8,0,12,0c3.2,0,5.4,3.1,4.5,6.2
					c-0.4,1.3-0.7,2.7-0.7,4.1c0,1.3,0.2,2.5,0.6,3.7c1.1,3.3,1.1,6.7,0,10c-0.8,2.6-0.8,5.1,0,7.7c0.9,2.7-0.6,5.5-3.3,6.2
					c-0.4,0.1-0.8,0.1-1.2,0.2C11.5,44,9.5,44,7.6,44z"></path>
    <path
        d="M42.3,44c-1.9,0-3.8,0-5.7,0c-3.2,0-5.5-3.1-4.6-6.2c0.4-1.4,0.7-2.9,0.7-4.4c0-1.3-0.3-2.6-0.7-3.9c-1-3.1-1-6.2,0-9.2
					c0.9-2.7,0.9-5.4,0.1-8c-1-3.2,1.3-6.3,4.6-6.3c3.9,0,7.8,0,11.8,0C49.3,6,50,6.7,50,7.5C50,8.4,49.3,9,48.4,9
					C44.6,9,40.8,9,37,9c-0.3,0-0.6,0-0.8,0.1c-1,0.3-1.5,1.3-1.2,2.3c0.4,1.2,0.7,2.4,0.8,3.7c0.2,2.1-0.1,4.1-0.8,6.1
					c-0.9,2.6-0.8,5.2,0,7.8c1,3.2,1.1,6.3,0,9.5c-0.2,0.7-0.2,1.3,0.3,1.9c0.4,0.4,0.8,0.6,1.4,0.6c1.1,0,2.2,0,3.3,0
					c2.8,0,5.7,0,8.5,0c0.7,0,1.3,0.4,1.5,1s0,1.3-0.5,1.7c-0.3,0.2-0.7,0.3-1,0.3C46.4,44,44.4,44,42.3,44z"></path>
    <path
        d="M29.2,25c0,5.7,0,11.5,0,17.2c0,0.3,0,0.6-0.2,0.9c-0.3,0.6-0.9,0.9-1.6,0.8c-0.6-0.1-1.1-0.6-1.2-1.2
					c0-0.2,0-0.3,0-0.5c0-11.5,0-23,0-34.5c0-0.5,0.1-1,0.5-1.3c0.5-0.4,1-0.5,1.6-0.3s0.9,0.7,0.9,1.3c0,0.1,0,0.3,0,0.4
					C29.2,13.6,29.2,19.3,29.2,25z"></path>
    <path
        d="M23.8,25c0,5.7,0,11.5,0,17.2c0,0.2,0,0.5-0.1,0.7c-0.2,0.7-0.8,1.1-1.6,1c-0.7-0.1-1.2-0.7-1.3-1.4c0-0.1,0-0.2,0-0.2
					c0-11.6,0-23.1,0-34.7c0-0.9,0.4-1.4,1.2-1.6c0.8-0.2,1.7,0.4,1.8,1.3c0,0.2,0,0.4,0,0.6C23.8,13.6,23.8,19.3,23.8,25z"></path>
</svg>