<svg xmlns="http://www.w3.org/2000/svg" id="wiresAndCables-svg">
    <svg xmlns="http://www.w3.org/2000/svg"
        viewBox="0 0 37.72 39.23">
        <path
            d="M0 34.45a.76.76 0 0 0 .28.69.86.86 0 0 0 .8.21 1.6 1.6 0 0 0 .62-.41l.52-.57c.16-.19.32-.37.49-.54.36-.37.75-.75 1.2-1.15a12.33 12.33 0 0 1 1-.86l.43-.33c.6-.45 1.22-.92 1.86-1.33a31.22 31.22 0 0 1 2.8-1.59c.77-.39 1.57-.76 2.35-1.12s1.65-.78 2.46-1.19a10.13 10.13 0 0 0 1.36-.87l.44-.32a11 11 0 0 0 .94-.73L18 24c.72-.62 1.46-1.26 2.16-1.93a19.47 19.47 0 0 0 1.66-1.79c.54-.65 1.1-1.39 1.71-2.25.28-.39.53-.81.77-1.21.1-.17.21-.34.31-.52v-.05a6.41 6.41 0 0 0 3.71 2.38 7.82 7.82 0 0 0 .8.13h.21a.17.17 0 0 1 0 .08l-.08.19c-.24.52-.49 1.06-.78 1.57a17.74 17.74 0 0 1-1.06 1.7 16 16 0 0 1-1.07 1.4c-.46.56-.91 1.06-1.36 1.54a14 14 0 0 1-1.18 1.13c-.59.51-1.17 1-1.78 1.46-.35.26-.73.5-1.09.73s-.52.32-.77.49A13.47 13.47 0 0 1 18 30.23c-.42.19-.85.39-1.27.6-1.11.58-2.33 1.23-3.72 2h-.07c-.79.43-1.6.88-2.37 1.37s-1.87 1.23-2.82 1.92a12.08 12.08 0 0 0-1.14 1l-.2.2a2.41 2.41 0 0 0-.41.58 1 1 0 0 0 .25 1.17.94.94 0 0 0 1.18-.07 2.35 2.35 0 0 0 .26-.29c.06-.08.13-.15.19-.22a11.34 11.34 0 0 1 2.42-1.86l.88-.54c1.15-.7 2.33-1.42 3.53-2.07.89-.48 1.82-.94 2.72-1.37l2.12-1.06c.76-.4 1.58-.88 2.49-1.47.67-.44 1.37-.94 2.14-1.55.51-.41 1-.88 1.45-1.33s1.07-1 1.54-1.59a20.54 20.54 0 0 0 1.44-1.79c.58-.83 1.11-1.66 1.58-2.47a12.12 12.12 0 0 0 1.22-2.84v-.13c.06-.23.13-.47.17-.72a2.48 2.48 0 0 0-.7-1.93l-.13-.15a1.36 1.36 0 0 1-.12-.12.23.23 0 0 1 0-.27l.51-1c.3-.57.61-1.17.94-1.74.43-.73.94-1.43 1.42-2.09a18.32 18.32 0 0 1 1.21-1.47 12.21 12.21 0 0 1 1-1 .6.6 0 0 0 .12-.81c-.13-.23-.13-.23.08-.43s.57-.54.85-.82l.42-.41.15-.14.17-.15a.51.51 0 0 0 .18-.4.53.53 0 0 0-.22-.38c-.41-.34-.53-.33-.91 0s-.91.87-1.35 1.31c-.2.3-.2.3-.53.17a.68.68 0 0 0-.59.06 11.46 11.46 0 0 0-1 .94 13.64 13.64 0 0 0-1 1.11c-.33.39-.74.91-1.13 1.45s-.59.89-.87 1.33l-.19.29c.23-.78.47-1.56.7-2.33l.33-1.11.93-3.12.33-1.18a.53.53 0 0 0-.3-.65c-.16-.08-.17-.09-.1-.27l.5-1.39V.87a.65.65 0 0 0-.12-.65.68.68 0 0 0-.6-.22.43.43 0 0 0-.3.26c-.14.35-.27.69-.4 1L30.6 2c-.08.19-.12.21-.25.19a.68.68 0 0 0-.79.53l-.39 1.35-.63 2.13c-.21.7-.42 1.41-.64 2.12l-.54 1.8c-.23.75-.45 1.49-.67 2.24l-.15.52c0 .11-.05.13-.06.13h-.15a3.43 3.43 0 0 0-1.54-.1 1.78 1.78 0 0 0-1.28 1.28 16.73 16.73 0 0 1-1 2 18.37 18.37 0 0 1-1.15 1.72c-.32.43-.68.87-1.15 1.4s-1.06 1.16-1.55 1.65-.95.89-1.33 1.22l-.24.21c-.48.41-1 .84-1.51 1.22a16.73 16.73 0 0 1-2 1.25c-.39.21-.82.39-1.23.57s-.59.25-.88.39l-.48.23c-.89.43-1.8.86-2.67 1.34s-1.92 1.12-2.86 1.76a26.81 26.81 0 0 0-2.31 1.75c-.6.51-1.15 1.1-1.71 1.61l-.35.35a6.37 6.37 0 0 0-.77.89 1.84 1.84 0 0 0-.32.7Zm28.49-17.94.18-.41c.08-.22.17-.43.27-.64.43-.9.92-1.91 1.43-2.88a17.69 17.69 0 0 1 1-1.59c.37-.56.78-1.14 1.26-1.79.25-.33.54-.67.92-1.09.2-.22.41-.43.62-.63l.22-.22a.53.53 0 0 1 .13.16.23.23 0 0 1 0 .09l-.28.27a4.68 4.68 0 0 0-.38.39l-.31.38c-.49.61-1 1.24-1.47 1.9a21.58 21.58 0 0 0-1.51 2.43c-.52 1-1 2-1.44 3l-.33.72ZM27 15.73c.15-.55.31-1.11.47-1.67s.31-1 .46-1.53l.27-.91c.25-.84.51-1.69.76-2.54l.19-.64c.21-.7.42-1.41.62-2.11l.28-1c.18-.6.35-1.19.53-1.78l.05-.06h.1a.28.28 0 0 1 .06.14c-.05.25-.13.5-.2.77v.12L29 9.72c-.14.45-.27.9-.41 1.36s-.25.83-.38 1.25-.3 1-.46 1.52l-.24.85c-.11.4-.23.79-.35 1.19Zm-1.72-1.2c.13-.09.47 0 .76.18l.38.25-.12.42-.48-.21-.18-.1c-.38-.22-.51-.45-.38-.54Z"></path>
    </svg>
</svg>